<svg width="3616" height="3980" viewBox="0 0 3616 3980" fill="none" xmlns="http://www.w3.org/2000/svg">
<path d="M2249.51 1138.12C2245.53 1138.12 2241.63 1139.15 2238.27 1141.08C2234.91 1143.01 2232.22 1145.77 2230.52 1149.03C2228.69 1152.4 2225.47 1154.98 2221.56 1156.21C2217.65 1157.45 2213.37 1157.24 2209.63 1155.63C2205.89 1154.02 2203 1151.14 2201.58 1147.61C2200.16 1144.08 2200.33 1140.19 2202.05 1136.77C2205.56 1130.04 2210.76 1124.16 2217.23 1119.59C2223.7 1115.02 2231.26 1111.88 2239.3 1110.44C2247.35 1108.99 2255.65 1109.27 2263.55 1111.27C2271.45 1113.26 2278.73 1116.9 2284.8 1121.9C2290.87 1126.9 2295.57 1133.12 2298.52 1140.07C2301.46 1147.02 2302.58 1154.49 2301.77 1161.9C2300.97 1169.3 2298.26 1176.44 2293.88 1182.73C2289.49 1189.01 2283.54 1194.28 2276.51 1198.11C2273.15 1199.86 2270.1 1202.06 2267.47 1204.65C2265.5 1206.75 2265.27 1208.01 2265.27 1208.58C2265.27 1209.91 2266.07 1211.17 2267.37 1211.82L2374.69 1265.95C2382.94 1270.1 2389.44 1276.63 2393.17 1284.5C2396.89 1292.37 2397.63 1301.15 2395.26 1309.44C2392.89 1317.73 2387.56 1325.08 2380.09 1330.32C2372.63 1335.56 2363.45 1338.4 2354.02 1338.39H2144.92C2135.49 1338.39 2126.34 1335.54 2118.88 1330.31C2111.43 1325.07 2106.1 1317.74 2103.73 1309.45C2101.37 1301.17 2102.09 1292.41 2105.8 1284.55C2109.51 1276.68 2115.99 1270.15 2124.22 1265.99L2205.09 1225.17C2206.91 1224.21 2208.91 1223.58 2210.99 1223.33C2213.08 1223.08 2215.19 1223.21 2217.22 1223.71C2219.25 1224.21 2221.14 1225.08 2222.8 1226.25C2224.45 1227.43 2225.83 1228.9 2226.85 1230.56C2227.87 1232.23 2228.51 1234.07 2228.74 1235.96C2228.96 1237.86 2228.77 1239.78 2228.17 1241.61C2227.57 1243.43 2226.57 1245.13 2225.23 1246.61C2223.9 1248.08 2222.25 1249.29 2220.39 1250.18L2139.54 1290.99C2137.39 1292.07 2135.7 1293.76 2134.73 1295.81C2133.76 1297.85 2133.56 1300.13 2134.18 1302.29C2134.8 1304.44 2136.19 1306.35 2138.13 1307.71C2140.08 1309.06 2142.47 1309.79 2144.92 1309.78H2354.02C2356.47 1309.78 2358.85 1309.05 2360.79 1307.69C2362.73 1306.33 2364.12 1304.42 2364.73 1302.27C2365.35 1300.12 2365.16 1297.84 2364.19 1295.79C2363.22 1293.75 2361.54 1292.05 2359.39 1290.98L2252.03 1236.83C2246.49 1234.02 2241.88 1229.93 2238.67 1224.96C2235.45 1220 2233.75 1214.35 2233.73 1208.6C2233.73 1199.23 2238.25 1191.66 2243.4 1186.15C2248.44 1180.71 2254.74 1176.57 2260.27 1173.56C2264.21 1171.42 2267.27 1168.16 2268.98 1164.29C2270.69 1160.42 2270.95 1156.15 2269.73 1152.13C2268.51 1148.11 2265.87 1144.56 2262.22 1142.03C2258.57 1139.5 2254.1 1138.13 2249.51 1138.12Z" fill="#A79BD9"></path>
<path d="M2249.51 2686.53C2245.53 2686.53 2241.63 2687.56 2238.27 2689.49C2234.91 2691.42 2232.22 2694.18 2230.52 2697.44C2228.69 2700.81 2225.47 2703.39 2221.56 2704.62C2217.65 2705.86 2213.37 2705.65 2209.63 2704.04C2205.89 2702.43 2203 2699.55 2201.58 2696.02C2200.16 2692.49 2200.33 2688.6 2202.05 2685.18C2205.56 2678.45 2210.76 2672.57 2217.23 2668C2223.7 2663.42 2231.26 2660.29 2239.3 2658.85C2247.35 2657.4 2255.65 2657.68 2263.55 2659.67C2271.45 2661.67 2278.73 2665.31 2284.8 2670.31C2290.87 2675.31 2295.57 2681.53 2298.52 2688.48C2301.46 2695.42 2302.58 2702.9 2301.77 2710.31C2300.97 2717.71 2298.26 2724.85 2293.88 2731.13C2289.49 2737.42 2283.54 2742.69 2276.51 2746.52C2273.15 2748.27 2270.1 2750.47 2267.47 2753.06C2265.5 2755.16 2265.27 2756.42 2265.27 2756.99C2265.27 2758.32 2266.07 2759.58 2267.37 2760.23L2374.69 2814.36C2382.94 2818.51 2389.44 2825.04 2393.17 2832.91C2396.89 2840.78 2397.63 2849.56 2395.26 2857.85C2392.89 2866.14 2387.56 2873.49 2380.09 2878.73C2372.63 2883.97 2363.45 2886.81 2354.02 2886.8H2144.92C2135.49 2886.8 2126.34 2883.95 2118.88 2878.72C2111.43 2873.48 2106.1 2866.15 2103.73 2857.86C2101.37 2849.58 2102.09 2840.82 2105.8 2832.95C2109.51 2825.09 2115.99 2818.56 2124.22 2814.4L2205.09 2773.58C2206.91 2772.62 2208.91 2771.99 2210.99 2771.74C2213.08 2771.49 2215.19 2771.62 2217.22 2772.12C2219.25 2772.62 2221.14 2773.49 2222.8 2774.66C2224.45 2775.84 2225.83 2777.31 2226.85 2778.97C2227.87 2780.64 2228.51 2782.48 2228.74 2784.37C2228.96 2786.27 2228.77 2788.19 2228.17 2790.02C2227.57 2791.84 2226.57 2793.54 2225.23 2795.01C2223.9 2796.49 2222.25 2797.7 2220.39 2798.59L2139.54 2839.4C2137.39 2840.48 2135.7 2842.17 2134.73 2844.21C2133.76 2846.26 2133.56 2848.54 2134.18 2850.7C2134.8 2852.85 2136.19 2854.76 2138.13 2856.12C2140.08 2857.47 2142.47 2858.2 2144.92 2858.19H2354.02C2356.47 2858.19 2358.85 2857.46 2360.79 2856.1C2362.73 2854.74 2364.12 2852.83 2364.73 2850.68C2365.35 2848.53 2365.16 2846.25 2364.19 2844.2C2363.22 2842.16 2361.54 2840.46 2359.39 2839.38L2252.03 2785.24C2246.49 2782.43 2241.88 2778.33 2238.67 2773.37C2235.45 2768.41 2233.75 2762.76 2233.73 2757.01C2233.73 2747.64 2238.25 2740.07 2243.4 2734.56C2248.44 2729.12 2254.74 2724.98 2260.27 2721.97C2264.21 2719.83 2267.27 2716.57 2268.98 2712.7C2270.69 2708.83 2270.95 2704.56 2269.73 2700.54C2268.51 2696.52 2265.87 2692.97 2262.22 2690.44C2258.57 2687.91 2254.1 2686.54 2249.51 2686.53Z" fill="#A79BD9"></path>
<path d="M1382.36 1138.12C1378.38 1138.12 1374.48 1139.15 1371.12 1141.08C1367.76 1143.01 1365.07 1145.77 1363.37 1149.03C1361.54 1152.4 1358.32 1154.98 1354.41 1156.21C1350.5 1157.45 1346.22 1157.24 1342.48 1155.63C1338.74 1154.02 1335.85 1151.14 1334.43 1147.61C1333.01 1144.08 1333.18 1140.19 1334.9 1136.77C1338.41 1130.04 1343.61 1124.16 1350.08 1119.59C1356.55 1115.02 1364.11 1111.88 1372.15 1110.44C1380.2 1108.99 1388.5 1109.27 1396.4 1111.27C1404.3 1113.26 1411.58 1116.9 1417.65 1121.9C1423.72 1126.9 1428.42 1133.12 1431.37 1140.07C1434.31 1147.02 1435.43 1154.49 1434.62 1161.9C1433.82 1169.3 1431.11 1176.44 1426.73 1182.73C1422.34 1189.01 1416.39 1194.28 1409.36 1198.11C1405.99 1199.86 1402.95 1202.06 1400.32 1204.65C1398.35 1206.75 1398.12 1208.01 1398.12 1208.58C1398.12 1209.91 1398.92 1211.17 1400.22 1211.82L1507.54 1265.95C1515.79 1270.1 1522.29 1276.63 1526.02 1284.5C1529.74 1292.37 1530.48 1301.15 1528.11 1309.44C1525.74 1317.73 1520.41 1325.08 1512.94 1330.32C1505.48 1335.56 1496.3 1338.4 1486.87 1338.39H1277.77C1268.34 1338.39 1259.19 1335.54 1251.73 1330.31C1244.28 1325.07 1238.95 1317.74 1236.58 1309.45C1234.22 1301.17 1234.94 1292.41 1238.65 1284.55C1242.36 1276.68 1248.84 1270.15 1257.07 1265.99L1337.94 1225.17C1339.76 1224.21 1341.76 1223.58 1343.84 1223.33C1345.93 1223.08 1348.04 1223.21 1350.07 1223.71C1352.1 1224.21 1353.99 1225.08 1355.65 1226.25C1357.3 1227.43 1358.68 1228.9 1359.7 1230.56C1360.72 1232.23 1361.36 1234.07 1361.59 1235.96C1361.81 1237.86 1361.62 1239.78 1361.02 1241.61C1360.42 1243.43 1359.42 1245.13 1358.08 1246.61C1356.75 1248.08 1355.1 1249.29 1353.24 1250.18L1272.39 1290.99C1270.24 1292.07 1268.55 1293.76 1267.58 1295.81C1266.61 1297.85 1266.41 1300.13 1267.03 1302.29C1267.65 1304.44 1269.04 1306.35 1270.98 1307.71C1272.93 1309.06 1275.32 1309.79 1277.77 1309.78H1486.87C1489.32 1309.78 1491.7 1309.05 1493.64 1307.69C1495.58 1306.33 1496.97 1304.42 1497.58 1302.27C1498.2 1300.12 1498.01 1297.84 1497.04 1295.79C1496.07 1293.75 1494.39 1292.05 1492.24 1290.98L1384.88 1236.83C1379.34 1234.02 1374.73 1229.93 1371.52 1224.96C1368.3 1220 1366.6 1214.35 1366.58 1208.6C1366.58 1199.23 1371.1 1191.66 1376.25 1186.15C1381.29 1180.71 1387.59 1176.57 1393.12 1173.56C1397.06 1171.42 1400.12 1168.16 1401.83 1164.29C1403.54 1160.42 1403.8 1156.15 1402.58 1152.13C1401.36 1148.11 1398.72 1144.56 1395.07 1142.03C1391.42 1139.5 1386.95 1138.13 1382.36 1138.12Z" fill="#A0C6E8"></path>
<path d="M1382.36 2686.53C1378.38 2686.53 1374.48 2687.56 1371.12 2689.49C1367.76 2691.42 1365.07 2694.18 1363.37 2697.44C1361.54 2700.81 1358.32 2703.39 1354.41 2704.62C1350.5 2705.86 1346.22 2705.65 1342.48 2704.04C1338.74 2702.43 1335.85 2699.55 1334.43 2696.02C1333.01 2692.49 1333.18 2688.6 1334.9 2685.18C1338.41 2678.45 1343.61 2672.57 1350.08 2668C1356.55 2663.42 1364.11 2660.29 1372.15 2658.85C1380.2 2657.4 1388.5 2657.68 1396.4 2659.67C1404.3 2661.67 1411.58 2665.31 1417.65 2670.31C1423.72 2675.31 1428.42 2681.53 1431.37 2688.48C1434.31 2695.42 1435.43 2702.9 1434.62 2710.31C1433.82 2717.71 1431.11 2724.85 1426.73 2731.13C1422.34 2737.42 1416.39 2742.69 1409.36 2746.52C1405.99 2748.27 1402.95 2750.47 1400.32 2753.06C1398.35 2755.16 1398.12 2756.42 1398.12 2756.99C1398.12 2758.32 1398.92 2759.58 1400.22 2760.23L1507.54 2814.36C1515.79 2818.51 1522.29 2825.04 1526.02 2832.91C1529.74 2840.78 1530.48 2849.56 1528.11 2857.85C1525.74 2866.14 1520.41 2873.49 1512.94 2878.73C1505.48 2883.97 1496.3 2886.81 1486.87 2886.8H1277.77C1268.34 2886.8 1259.19 2883.95 1251.73 2878.72C1244.28 2873.48 1238.95 2866.15 1236.58 2857.86C1234.22 2849.58 1234.94 2840.82 1238.65 2832.95C1242.36 2825.09 1248.84 2818.56 1257.07 2814.4L1337.94 2773.58C1339.76 2772.62 1341.76 2771.99 1343.84 2771.74C1345.93 2771.49 1348.04 2771.62 1350.07 2772.12C1352.1 2772.62 1353.99 2773.49 1355.65 2774.66C1357.3 2775.84 1358.68 2777.31 1359.7 2778.97C1360.72 2780.64 1361.36 2782.48 1361.59 2784.37C1361.81 2786.27 1361.62 2788.19 1361.02 2790.02C1360.42 2791.84 1359.42 2793.54 1358.08 2795.01C1356.75 2796.49 1355.1 2797.7 1353.24 2798.59L1272.39 2839.4C1270.24 2840.48 1268.55 2842.17 1267.58 2844.21C1266.61 2846.26 1266.41 2848.54 1267.03 2850.7C1267.65 2852.85 1269.04 2854.76 1270.98 2856.12C1272.93 2857.47 1275.32 2858.2 1277.77 2858.19H1486.87C1489.32 2858.19 1491.7 2857.46 1493.64 2856.1C1495.58 2854.74 1496.97 2852.83 1497.58 2850.68C1498.2 2848.53 1498.01 2846.25 1497.04 2844.2C1496.07 2842.16 1494.39 2840.46 1492.24 2839.38L1384.88 2785.24C1379.34 2782.43 1374.73 2778.33 1371.52 2773.37C1368.3 2768.41 1366.6 2762.76 1366.58 2757.01C1366.58 2747.64 1371.1 2740.07 1376.25 2734.56C1381.29 2729.12 1387.59 2724.98 1393.12 2721.97C1397.06 2719.83 1400.12 2716.57 1401.83 2712.7C1403.54 2708.83 1403.8 2704.56 1402.58 2700.54C1401.36 2696.52 1398.72 2692.97 1395.07 2690.44C1391.42 2687.91 1386.95 2686.54 1382.36 2686.53Z" fill="#A0C6E8"></path>
<path d="M515.207 1138.12C511.228 1138.12 507.331 1139.15 503.968 1141.08C500.606 1143.01 497.917 1145.77 496.214 1149.03C494.383 1152.4 491.166 1154.98 487.258 1156.21C483.35 1157.45 479.065 1157.24 475.327 1155.63C471.589 1154.02 468.698 1151.14 467.28 1147.61C465.861 1144.08 466.028 1140.19 467.744 1136.77C471.259 1130.04 476.46 1124.16 482.929 1119.59C489.398 1115.02 496.957 1111.88 505 1110.44C513.043 1108.99 521.347 1109.27 529.247 1111.27C537.148 1113.26 544.425 1116.9 550.497 1121.9C556.569 1126.9 561.266 1133.12 564.214 1140.07C567.161 1147.02 568.276 1154.49 567.471 1161.9C566.665 1169.3 563.96 1176.44 559.573 1182.73C555.185 1189.01 549.238 1194.28 542.205 1198.11C538.842 1199.86 535.795 1202.06 533.171 1204.65C531.196 1206.75 530.965 1208.01 530.965 1208.58C530.965 1209.91 531.763 1211.17 533.066 1211.82L640.387 1265.95C648.641 1270.1 655.141 1276.63 658.865 1284.5C662.588 1292.37 663.324 1301.15 660.958 1309.44C658.591 1317.73 653.255 1325.08 645.789 1330.32C638.323 1335.56 629.15 1338.4 619.713 1338.39H410.617C401.192 1338.39 392.034 1335.54 384.58 1330.31C377.127 1325.07 371.798 1317.74 369.431 1309.45C367.064 1301.17 367.791 1292.41 371.5 1284.55C375.208 1276.68 381.687 1270.15 389.922 1265.99L470.791 1225.17C472.603 1224.21 474.609 1223.58 476.692 1223.33C478.775 1223.08 480.892 1223.21 482.919 1223.71C484.946 1224.21 486.842 1225.08 488.495 1226.25C490.148 1227.43 491.525 1228.9 492.546 1230.56C493.566 1232.23 494.208 1234.07 494.435 1235.96C494.662 1237.86 494.469 1239.78 493.867 1241.61C493.265 1243.43 492.267 1245.13 490.93 1246.61C489.594 1248.08 487.947 1249.29 486.086 1250.18L405.238 1290.99C403.089 1292.07 401.395 1293.76 400.424 1295.81C399.453 1297.85 399.261 1300.13 399.879 1302.29C400.496 1304.44 401.887 1306.35 403.831 1307.71C405.776 1309.06 408.164 1309.79 410.617 1309.78H619.713C622.164 1309.78 624.546 1309.05 626.486 1307.69C628.426 1306.33 629.813 1304.42 630.429 1302.27C631.044 1300.12 630.854 1297.84 629.888 1295.79C628.922 1293.75 627.235 1292.05 625.091 1290.98L517.728 1236.83C512.192 1234.02 507.579 1229.93 504.363 1224.96C501.147 1220 499.444 1214.35 499.428 1208.6C499.428 1199.23 503.945 1191.66 509.093 1186.15C514.135 1180.71 520.439 1176.57 525.964 1173.56C529.906 1171.42 532.965 1168.16 534.674 1164.29C536.383 1160.42 536.648 1156.15 535.428 1152.13C534.207 1148.11 531.569 1144.56 527.917 1142.03C524.265 1139.5 519.801 1138.13 515.207 1138.12Z" fill="#5053A9"></path>
<path d="M515.207 2686.53C511.228 2686.53 507.331 2687.56 503.968 2689.49C500.606 2691.42 497.917 2694.18 496.214 2697.44C494.383 2700.81 491.166 2703.39 487.258 2704.62C483.35 2705.86 479.065 2705.65 475.327 2704.04C471.589 2702.43 468.698 2699.55 467.28 2696.02C465.861 2692.49 466.028 2688.6 467.744 2685.18C471.259 2678.45 476.46 2672.57 482.929 2668C489.398 2663.42 496.957 2660.29 505 2658.85C513.043 2657.4 521.347 2657.68 529.247 2659.67C537.148 2661.67 544.425 2665.31 550.497 2670.31C556.569 2675.31 561.266 2681.53 564.214 2688.48C567.161 2695.42 568.276 2702.9 567.471 2710.31C566.665 2717.71 563.96 2724.85 559.573 2731.13C555.185 2737.42 549.238 2742.69 542.205 2746.52C538.842 2748.27 535.795 2750.47 533.171 2753.06C531.196 2755.16 530.965 2756.42 530.965 2756.99C530.965 2758.32 531.763 2759.58 533.066 2760.23L640.387 2814.36C648.641 2818.51 655.141 2825.04 658.865 2832.91C662.588 2840.78 663.324 2849.56 660.958 2857.85C658.591 2866.14 653.255 2873.49 645.789 2878.73C638.323 2883.97 629.15 2886.81 619.713 2886.8H410.617C401.192 2886.8 392.034 2883.95 384.58 2878.72C377.127 2873.48 371.798 2866.15 369.431 2857.86C367.064 2849.58 367.791 2840.82 371.5 2832.95C375.208 2825.09 381.687 2818.56 389.922 2814.4L470.791 2773.58C472.603 2772.62 474.609 2771.99 476.692 2771.74C478.775 2771.49 480.892 2771.62 482.919 2772.12C484.946 2772.62 486.842 2773.49 488.495 2774.66C490.148 2775.84 491.525 2777.31 492.546 2778.97C493.566 2780.64 494.208 2782.48 494.435 2784.37C494.662 2786.27 494.469 2788.19 493.867 2790.02C493.265 2791.84 492.267 2793.54 490.93 2795.01C489.594 2796.49 487.947 2797.7 486.086 2798.59L405.238 2839.4C403.089 2840.48 401.395 2842.17 400.424 2844.21C399.453 2846.26 399.261 2848.54 399.879 2850.7C400.496 2852.85 401.887 2854.76 403.831 2856.12C405.776 2857.47 408.164 2858.2 410.617 2858.19H619.713C622.164 2858.19 624.546 2857.46 626.486 2856.1C628.426 2854.74 629.813 2852.83 630.429 2850.68C631.044 2848.53 630.854 2846.25 629.888 2844.2C628.922 2842.16 627.235 2840.46 625.091 2839.38L517.728 2785.24C512.192 2782.43 507.579 2778.33 504.363 2773.37C501.147 2768.41 499.444 2762.76 499.428 2757.01C499.428 2747.64 503.945 2740.07 509.093 2734.56C514.135 2729.12 520.439 2724.98 525.964 2721.97C529.906 2719.83 532.965 2716.57 534.674 2712.7C536.383 2708.83 536.648 2704.56 535.428 2700.54C534.207 2696.52 531.569 2692.97 527.917 2690.44C524.265 2687.91 519.801 2686.54 515.207 2686.53Z" fill="#5053A9"></path>
<path d="M3116.66 1138.12C3112.68 1138.12 3108.78 1139.15 3105.42 1141.08C3102.06 1143.01 3099.37 1145.77 3097.67 1149.03C3095.84 1152.4 3092.62 1154.98 3088.71 1156.21C3084.8 1157.45 3080.52 1157.24 3076.78 1155.63C3073.04 1154.02 3070.15 1151.14 3068.73 1147.61C3067.31 1144.08 3067.48 1140.19 3069.2 1136.77C3072.71 1130.04 3077.91 1124.16 3084.38 1119.59C3090.85 1115.02 3098.41 1111.88 3106.45 1110.44C3114.5 1108.99 3122.8 1109.27 3130.7 1111.27C3138.6 1113.26 3145.88 1116.9 3151.95 1121.9C3158.02 1126.9 3162.72 1133.12 3165.67 1140.07C3168.61 1147.02 3169.73 1154.49 3168.92 1161.9C3168.12 1169.3 3165.41 1176.44 3161.03 1182.73C3156.64 1189.01 3150.69 1194.28 3143.66 1198.11C3140.3 1199.86 3137.25 1202.06 3134.62 1204.65C3132.65 1206.75 3132.42 1208.01 3132.42 1208.58C3132.42 1209.91 3133.22 1211.17 3134.52 1211.82L3241.84 1265.95C3250.09 1270.1 3256.59 1276.63 3260.32 1284.5C3264.04 1292.37 3264.78 1301.15 3262.41 1309.44C3260.04 1317.73 3254.71 1325.08 3247.24 1330.32C3239.78 1335.56 3230.6 1338.4 3221.17 1338.39H3012.07C3002.64 1338.39 2993.49 1335.54 2986.03 1330.31C2978.58 1325.07 2973.25 1317.74 2970.88 1309.45C2968.52 1301.17 2969.24 1292.41 2972.95 1284.55C2976.66 1276.68 2983.14 1270.15 2991.37 1265.99L3072.24 1225.17C3074.06 1224.21 3076.06 1223.58 3078.15 1223.33C3080.23 1223.08 3082.35 1223.21 3084.37 1223.71C3086.4 1224.21 3088.3 1225.08 3089.95 1226.25C3091.6 1227.43 3092.98 1228.9 3094 1230.56C3095.02 1232.23 3095.66 1234.07 3095.89 1235.96C3096.11 1237.86 3095.92 1239.78 3095.32 1241.61C3094.72 1243.43 3093.72 1245.13 3092.38 1246.61C3091.05 1248.08 3089.4 1249.29 3087.54 1250.18L3006.69 1290.99C3004.54 1292.07 3002.85 1293.76 3001.88 1295.81C3000.91 1297.85 3000.71 1300.13 3001.33 1302.29C3001.95 1304.44 3003.34 1306.35 3005.28 1307.71C3007.23 1309.06 3009.62 1309.79 3012.07 1309.78H3221.17C3223.62 1309.78 3226 1309.05 3227.94 1307.69C3229.88 1306.33 3231.27 1304.42 3231.88 1302.27C3232.5 1300.12 3232.31 1297.84 3231.34 1295.79C3230.38 1293.75 3228.69 1292.05 3226.54 1290.98L3119.18 1236.83C3113.65 1234.02 3109.03 1229.93 3105.82 1224.96C3102.6 1220 3100.9 1214.35 3100.88 1208.6C3100.88 1199.23 3105.4 1191.66 3110.55 1186.15C3115.59 1180.71 3121.89 1176.57 3127.42 1173.56C3131.36 1171.42 3134.42 1168.16 3136.13 1164.29C3137.84 1160.42 3138.1 1156.15 3136.88 1152.13C3135.66 1148.11 3133.02 1144.56 3129.37 1142.03C3125.72 1139.5 3121.25 1138.13 3116.66 1138.12Z" fill="#5053A9"></path>
<path d="M3116.66 2686.53C3112.68 2686.53 3108.78 2687.56 3105.42 2689.49C3102.06 2691.42 3099.37 2694.18 3097.67 2697.44C3095.84 2700.81 3092.62 2703.39 3088.71 2704.62C3084.8 2705.86 3080.52 2705.65 3076.78 2704.04C3073.04 2702.43 3070.15 2699.55 3068.73 2696.02C3067.31 2692.49 3067.48 2688.6 3069.2 2685.18C3072.71 2678.45 3077.91 2672.57 3084.38 2668C3090.85 2663.42 3098.41 2660.29 3106.45 2658.85C3114.5 2657.4 3122.8 2657.68 3130.7 2659.67C3138.6 2661.67 3145.88 2665.31 3151.95 2670.31C3158.02 2675.31 3162.72 2681.53 3165.67 2688.48C3168.61 2695.42 3169.73 2702.9 3168.92 2710.31C3168.12 2717.71 3165.41 2724.85 3161.03 2731.13C3156.64 2737.42 3150.69 2742.69 3143.66 2746.52C3140.3 2748.27 3137.25 2750.47 3134.62 2753.06C3132.65 2755.16 3132.42 2756.42 3132.42 2756.99C3132.42 2758.32 3133.22 2759.58 3134.52 2760.23L3241.84 2814.36C3250.09 2818.51 3256.59 2825.04 3260.32 2832.91C3264.04 2840.78 3264.78 2849.56 3262.41 2857.85C3260.04 2866.14 3254.71 2873.49 3247.24 2878.73C3239.78 2883.97 3230.6 2886.81 3221.17 2886.8H3012.07C3002.64 2886.8 2993.49 2883.95 2986.03 2878.72C2978.58 2873.48 2973.25 2866.15 2970.88 2857.86C2968.52 2849.58 2969.24 2840.82 2972.95 2832.95C2976.66 2825.09 2983.14 2818.56 2991.37 2814.4L3072.24 2773.58C3074.06 2772.62 3076.06 2771.99 3078.15 2771.74C3080.23 2771.49 3082.35 2771.62 3084.37 2772.12C3086.4 2772.62 3088.3 2773.49 3089.95 2774.66C3091.6 2775.84 3092.98 2777.31 3094 2778.97C3095.02 2780.64 3095.66 2782.48 3095.89 2784.37C3096.11 2786.27 3095.92 2788.19 3095.32 2790.02C3094.72 2791.84 3093.72 2793.54 3092.38 2795.01C3091.05 2796.49 3089.4 2797.7 3087.54 2798.59L3006.69 2839.4C3004.54 2840.48 3002.85 2842.17 3001.88 2844.21C3000.91 2846.26 3000.71 2848.54 3001.33 2850.7C3001.95 2852.85 3003.34 2854.76 3005.28 2856.12C3007.23 2857.47 3009.62 2858.2 3012.07 2858.19H3221.17C3223.62 2858.19 3226 2857.46 3227.94 2856.1C3229.88 2854.74 3231.27 2852.83 3231.88 2850.68C3232.5 2848.53 3232.31 2846.25 3231.34 2844.2C3230.38 2842.16 3228.69 2840.46 3226.54 2839.38L3119.18 2785.24C3113.65 2782.43 3109.03 2778.33 3105.82 2773.37C3102.6 2768.41 3100.9 2762.76 3100.88 2757.01C3100.88 2747.64 3105.4 2740.07 3110.55 2734.56C3115.59 2729.12 3121.89 2724.98 3127.42 2721.97C3131.36 2719.83 3134.42 2716.57 3136.13 2712.7C3137.84 2708.83 3138.1 2704.56 3136.88 2700.54C3135.66 2696.52 3133.02 2692.97 3129.37 2690.44C3125.72 2687.91 3121.25 2686.54 3116.66 2686.53Z" fill="#5053A9"></path>
<path d="M689.876 701.638C689.876 570.859 493.708 570.859 493.708 701.638C493.708 832.416 689.876 832.416 689.876 701.638ZM461.014 570.859H722.571V832.416H461.014M526.403 734.333C526.403 799.722 689.876 767.027 657.181 701.638L526.403 734.333Z" fill="#A79BD9"></path>
<path d="M689.876 2251.1C689.876 2120.32 493.708 2120.32 493.708 2251.1C493.708 2381.88 689.876 2381.88 689.876 2251.1ZM461.014 2120.32H722.571V2381.88H461.014M526.403 2283.8C526.403 2349.19 689.876 2316.49 657.181 2251.1L526.403 2283.8Z" fill="#A79BD9"></path>
<path d="M689.876 3799.51C689.876 3668.73 493.708 3668.73 493.708 3799.51C493.708 3930.29 689.876 3930.29 689.876 3799.51ZM461.014 3668.73H722.571V3930.29H461.014M526.403 3832.21C526.403 3897.6 689.876 3864.9 657.181 3799.51L526.403 3832.21Z" fill="#A79BD9"></path>
<path d="M3471.94 701.638C3471.94 570.859 3275.77 570.859 3275.77 701.638C3275.77 832.416 3471.94 832.416 3471.94 701.638ZM3243.08 570.859H3504.64V832.416H3243.08M3308.47 734.333C3308.47 799.722 3471.94 767.027 3439.25 701.638L3308.47 734.333Z" fill="#A79BD9"></path>
<path d="M3471.94 2251.1C3471.94 2120.32 3275.77 2120.32 3275.77 2251.1C3275.77 2381.88 3471.94 2381.88 3471.94 2251.1ZM3243.08 2120.32H3504.64V2381.88H3243.08M3308.47 2283.8C3308.47 2349.19 3471.94 2316.49 3439.25 2251.1L3308.47 2283.8Z" fill="#A79BD9"></path>
<path d="M3471.94 3799.51C3471.94 3668.73 3275.77 3668.73 3275.77 3799.51C3275.77 3930.29 3471.94 3930.29 3471.94 3799.51ZM3243.08 3668.73H3504.64V3930.29H3243.08M3308.47 3832.21C3308.47 3897.6 3471.94 3864.9 3439.25 3799.51L3308.47 3832.21Z" fill="#A79BD9"></path>
<path d="M2544.59 701.638C2544.59 570.859 2348.42 570.859 2348.42 701.638C2348.42 832.416 2544.59 832.416 2544.59 701.638ZM2315.72 570.859H2577.28V832.416H2315.72M2381.11 734.333C2381.11 799.722 2544.59 767.027 2511.89 701.638L2381.11 734.333Z" fill="#A0C6E8"></path>
<path d="M2544.59 2251.1C2544.59 2120.32 2348.42 2120.32 2348.42 2251.1C2348.42 2381.88 2544.59 2381.88 2544.59 2251.1ZM2315.72 2120.32H2577.28V2381.88H2315.72M2381.11 2283.8C2381.11 2349.19 2544.59 2316.49 2511.89 2251.1L2381.11 2283.8Z" fill="#A0C6E8"></path>
<path d="M2544.59 3799.51C2544.59 3668.73 2348.42 3668.73 2348.42 3799.51C2348.42 3930.29 2544.59 3930.29 2544.59 3799.51ZM2315.72 3668.73H2577.28V3930.29H2315.72M2381.11 3832.21C2381.11 3897.6 2544.59 3864.9 2511.89 3799.51L2381.11 3832.21Z" fill="#A0C6E8"></path>
<path d="M1617.23 701.638C1617.23 570.859 1421.06 570.859 1421.06 701.638C1421.06 832.416 1617.23 832.416 1617.23 701.638ZM1388.37 570.859H1649.93V832.416H1388.37M1453.76 734.333C1453.76 799.722 1617.23 767.027 1584.54 701.638L1453.76 734.333Z" fill="#5053A9"></path>
<path d="M1617.23 2251.1C1617.23 2120.32 1421.06 2120.32 1421.06 2251.1C1421.06 2381.88 1617.23 2381.88 1617.23 2251.1ZM1388.37 2120.32H1649.93V2381.88H1388.37M1453.76 2283.8C1453.76 2349.19 1617.23 2316.49 1584.54 2251.1L1453.76 2283.8Z" fill="#5053A9"></path>
<path d="M1617.23 3799.51C1617.23 3668.73 1421.06 3668.73 1421.06 3799.51C1421.06 3930.29 1617.23 3930.29 1617.23 3799.51ZM1388.37 3668.73H1649.93V3930.29H1388.37M1453.76 3832.21C1453.76 3897.6 1617.23 3864.9 1584.54 3799.51L1453.76 3832.21Z" fill="#5053A9"></path>
<path d="M1411.97 228.959H1412.13M1395.62 81.833H1517.55C1529.16 81.8338 1540.39 85.9528 1549.25 93.4572C1558.11 100.962 1564.02 111.365 1565.93 122.816L1575.36 179.443L1588.6 258.973C1588.99 261.312 1588.86 263.708 1588.23 265.995C1587.6 268.281 1586.48 270.403 1584.95 272.213C1583.42 274.024 1581.51 275.479 1579.36 276.479C1577.21 277.478 1574.87 277.997 1572.5 278.001H1297.54C1297.54 247.652 1309.59 218.546 1331.05 197.086C1352.51 175.626 1381.62 163.57 1411.97 163.57H1572.17M1477.36 228.959H1477.52" stroke="#A79BD9" stroke-width="32.6946" stroke-linecap="round" stroke-linejoin="round"></path>
<path d="M1411.97 1778.42H1412.13M1395.62 1631.3H1517.55C1529.16 1631.3 1540.39 1635.42 1549.25 1642.92C1558.11 1650.43 1564.02 1660.83 1565.93 1672.28L1575.36 1728.91L1588.6 1808.44C1588.99 1810.78 1588.86 1813.17 1588.23 1815.46C1587.6 1817.75 1586.48 1819.87 1584.95 1821.68C1583.42 1823.49 1581.51 1824.94 1579.36 1825.94C1577.21 1826.94 1574.87 1827.46 1572.5 1827.47H1297.54C1297.54 1797.12 1309.59 1768.01 1331.05 1746.55C1352.51 1725.09 1381.62 1713.03 1411.97 1713.03H1572.17M1477.36 1778.42H1477.52" stroke="#A79BD9" stroke-width="32.6946" stroke-linecap="round" stroke-linejoin="round"></path>
<path d="M1411.97 3327.89H1412.13M1395.62 3180.76H1517.55C1529.16 3180.76 1540.39 3184.88 1549.25 3192.39C1558.11 3199.89 1564.02 3210.29 1565.93 3221.75L1575.36 3278.37L1588.6 3357.9C1588.99 3360.24 1588.86 3362.64 1588.23 3364.92C1587.6 3367.21 1586.48 3369.33 1584.95 3371.14C1583.42 3372.95 1581.51 3374.41 1579.36 3375.41C1577.21 3376.41 1574.87 3376.93 1572.5 3376.93H1297.54C1297.54 3346.58 1309.59 3317.48 1331.05 3296.02C1352.51 3274.56 1381.62 3262.5 1411.97 3262.5H1572.17M1477.36 3327.89H1477.52" stroke="#A79BD9" stroke-width="32.6946" stroke-linecap="round" stroke-linejoin="round"></path>
<path d="M515.24 228.959H515.403M498.892 81.833H620.827C632.436 81.8338 643.668 85.9528 652.526 93.4572C661.383 100.962 667.291 111.365 669.199 122.816L678.631 179.443L691.873 258.973C692.262 261.312 692.137 263.708 691.507 265.995C690.877 268.281 689.757 270.403 688.226 272.213C686.694 274.024 684.786 275.479 682.635 276.479C680.484 277.478 678.142 277.997 675.77 278.001H400.809C400.809 247.652 412.865 218.546 434.325 197.086C455.785 175.626 484.891 163.57 515.24 163.57H675.444M580.629 228.959H580.793" stroke="#A0C6E8" stroke-width="32.6946" stroke-linecap="round" stroke-linejoin="round"></path>
<path d="M515.24 1778.42H515.403M498.892 1631.3H620.827C632.436 1631.3 643.668 1635.42 652.526 1642.92C661.383 1650.43 667.291 1660.83 669.199 1672.28L678.631 1728.91L691.873 1808.44C692.262 1810.78 692.137 1813.17 691.507 1815.46C690.877 1817.75 689.757 1819.87 688.226 1821.68C686.694 1823.49 684.786 1824.94 682.635 1825.94C680.484 1826.94 678.142 1827.46 675.77 1827.47H400.809C400.809 1797.12 412.865 1768.01 434.325 1746.55C455.785 1725.09 484.891 1713.03 515.24 1713.03H675.444M580.629 1778.42H580.793" stroke="#A0C6E8" stroke-width="32.6946" stroke-linecap="round" stroke-linejoin="round"></path>
<path d="M515.24 3327.89H515.403M498.892 3180.76H620.827C632.436 3180.76 643.668 3184.88 652.526 3192.39C661.383 3199.89 667.291 3210.29 669.199 3221.75L678.631 3278.37L691.873 3357.9C692.262 3360.24 692.137 3362.64 691.507 3364.92C690.877 3367.21 689.757 3369.33 688.226 3371.14C686.694 3372.95 684.786 3374.41 682.635 3375.41C680.484 3376.41 678.142 3376.93 675.77 3376.93H400.809C400.809 3346.58 412.865 3317.48 434.325 3296.02C455.785 3274.56 484.891 3262.5 515.24 3262.5H675.444M580.629 3327.89H580.793" stroke="#A0C6E8" stroke-width="32.6946" stroke-linecap="round" stroke-linejoin="round"></path>
<path d="M3205.42 228.959H3205.58M3189.07 81.833H3311C3322.61 81.8338 3333.84 85.9528 3342.7 93.4572C3351.56 100.962 3357.47 111.365 3359.37 122.816L3368.81 179.443L3382.05 258.973C3382.44 261.312 3382.31 263.708 3381.68 265.995C3381.05 268.281 3379.93 270.403 3378.4 272.213C3376.87 274.024 3374.96 275.479 3372.81 276.479C3370.66 277.478 3368.32 277.997 3365.95 278.001H3090.98C3090.98 247.652 3103.04 218.546 3124.5 197.086C3145.96 175.626 3175.07 163.57 3205.42 163.57H3365.62M3270.8 228.959H3270.97" stroke="#A0C6E8" stroke-width="32.6946" stroke-linecap="round" stroke-linejoin="round"></path>
<path d="M3205.42 1778.42H3205.58M3189.07 1631.3H3311C3322.61 1631.3 3333.84 1635.42 3342.7 1642.92C3351.56 1650.43 3357.47 1660.83 3359.37 1672.28L3368.81 1728.91L3382.05 1808.44C3382.44 1810.78 3382.31 1813.17 3381.68 1815.46C3381.05 1817.75 3379.93 1819.87 3378.4 1821.68C3376.87 1823.49 3374.96 1824.94 3372.81 1825.94C3370.66 1826.94 3368.32 1827.46 3365.95 1827.47H3090.98C3090.98 1797.12 3103.04 1768.01 3124.5 1746.55C3145.96 1725.09 3175.07 1713.03 3205.42 1713.03H3365.62M3270.8 1778.42H3270.97" stroke="#A0C6E8" stroke-width="32.6946" stroke-linecap="round" stroke-linejoin="round"></path>
<path d="M3205.42 3327.89H3205.58M3189.07 3180.76H3311C3322.61 3180.76 3333.84 3184.88 3342.7 3192.39C3351.56 3199.89 3357.47 3210.29 3359.37 3221.75L3368.81 3278.37L3382.05 3357.9C3382.44 3360.24 3382.31 3362.64 3381.68 3364.92C3381.05 3367.21 3379.93 3369.33 3378.4 3371.14C3376.87 3372.95 3374.96 3374.41 3372.81 3375.41C3370.66 3376.41 3368.32 3376.93 3365.95 3376.93H3090.98C3090.98 3346.58 3103.04 3317.48 3124.5 3296.02C3145.96 3274.56 3175.07 3262.5 3205.42 3262.5H3365.62M3270.8 3327.89H3270.97" stroke="#A0C6E8" stroke-width="32.6946" stroke-linecap="round" stroke-linejoin="round"></path>
<path d="M2308.69 228.959H2308.85M2292.34 81.833H2414.28C2425.89 81.8338 2437.12 85.9528 2445.98 93.4572C2454.83 100.962 2460.74 111.365 2462.65 122.816L2472.08 179.443L2485.32 258.973C2485.71 261.312 2485.59 263.708 2484.96 265.995C2484.33 268.281 2483.21 270.403 2481.68 272.213C2480.14 274.024 2478.24 275.479 2476.09 276.479C2473.94 277.478 2471.59 277.997 2469.22 278.001H2194.26C2194.26 247.652 2206.32 218.546 2227.78 197.086C2249.24 175.626 2278.34 163.57 2308.69 163.57H2468.89M2374.08 228.959H2374.24" stroke="#5053A9" stroke-width="32.6946" stroke-linecap="round" stroke-linejoin="round"></path>
<path d="M2308.69 1778.42H2308.85M2292.34 1631.3H2414.28C2425.89 1631.3 2437.12 1635.42 2445.98 1642.92C2454.83 1650.43 2460.74 1660.83 2462.65 1672.28L2472.08 1728.91L2485.32 1808.44C2485.71 1810.78 2485.59 1813.17 2484.96 1815.46C2484.33 1817.75 2483.21 1819.87 2481.68 1821.68C2480.14 1823.49 2478.24 1824.94 2476.09 1825.94C2473.94 1826.94 2471.59 1827.46 2469.22 1827.47H2194.26C2194.26 1797.12 2206.32 1768.01 2227.78 1746.55C2249.24 1725.09 2278.34 1713.03 2308.69 1713.03H2468.89M2374.08 1778.42H2374.24" stroke="#5053A9" stroke-width="32.6946" stroke-linecap="round" stroke-linejoin="round"></path>
<path d="M2308.69 3327.89H2308.85M2292.34 3180.76H2414.28C2425.89 3180.76 2437.12 3184.88 2445.98 3192.39C2454.83 3199.89 2460.74 3210.29 2462.65 3221.75L2472.08 3278.37L2485.32 3357.9C2485.71 3360.24 2485.59 3362.64 2484.96 3364.92C2484.33 3367.21 2483.21 3369.33 2481.68 3371.14C2480.14 3372.95 2478.24 3374.41 2476.09 3375.41C2473.94 3376.41 2471.59 3376.93 2469.22 3376.93H2194.26C2194.26 3346.58 2206.32 3317.48 2227.78 3296.02C2249.24 3274.56 2278.34 3262.5 2308.69 3262.5H2468.89M2374.08 3327.89H2374.24" stroke="#5053A9" stroke-width="32.6946" stroke-linecap="round" stroke-linejoin="round"></path>
<mask id="mask0_139_2" style="mask-type:luminance" maskUnits="userSpaceOnUse" x="0" y="0" width="197" height="360">
<path d="M16.3477 204.342C16.3477 204.342 179.821 204.342 179.821 106.258V343.294H16.3477V204.342Z" fill="white"></path>
<path d="M179.821 106.258V98.0842C179.821 52.9411 143.227 16.3477 98.0842 16.3477C52.9411 16.3477 16.3477 52.9411 16.3477 98.0842M179.821 106.258C179.821 204.342 16.3477 204.342 16.3477 204.342V343.294H179.821V106.258Z" stroke="white" stroke-width="32.6946" stroke-linecap="round" stroke-linejoin="round"></path>
<path d="M65.3906 261.558L89.9116 286.079L130.78 245.211" stroke="black" stroke-width="32.6946" stroke-linecap="round" stroke-linejoin="round"></path>
</mask>
<g mask="url(#mask0_139_2)">
<path d="M-89.9102 -16.3467H302.425V375.989H-89.9102V-16.3467Z" fill="#A79BD9"></path>
</g>
<mask id="mask1_139_2" style="mask-type:luminance" maskUnits="userSpaceOnUse" x="0" y="1549" width="197" height="361">
<path d="M16.3477 1753.81C16.3477 1753.81 179.821 1753.81 179.821 1655.72V1892.76H16.3477V1753.81Z" fill="white"></path>
<path d="M179.821 1655.72V1647.55C179.821 1602.41 143.227 1565.81 98.0842 1565.81C52.9411 1565.81 16.3477 1602.41 16.3477 1647.55M179.821 1655.72C179.821 1753.81 16.3477 1753.81 16.3477 1753.81V1892.76H179.821V1655.72Z" stroke="white" stroke-width="32.6946" stroke-linecap="round" stroke-linejoin="round"></path>
<path d="M65.3906 1811.02L89.9116 1835.54L130.78 1794.68" stroke="black" stroke-width="32.6946" stroke-linecap="round" stroke-linejoin="round"></path>
</mask>
<g mask="url(#mask1_139_2)">
<path d="M-89.9102 1533.12H302.425V1925.45H-89.9102V1533.12Z" fill="#A79BD9"></path>
</g>
<mask id="mask2_139_2" style="mask-type:luminance" maskUnits="userSpaceOnUse" x="0" y="3098" width="197" height="361">
<path d="M16.3477 3303.27C16.3477 3303.27 179.821 3303.27 179.821 3205.19V3442.22H16.3477V3303.27Z" fill="white"></path>
<path d="M179.821 3205.19V3197.01C179.821 3151.87 143.227 3115.28 98.0842 3115.28C52.9411 3115.28 16.3477 3151.87 16.3477 3197.01M179.821 3205.19C179.821 3303.27 16.3477 3303.27 16.3477 3303.27V3442.22H179.821V3205.19Z" stroke="white" stroke-width="32.6946" stroke-linecap="round" stroke-linejoin="round"></path>
<path d="M65.3906 3360.49L89.9116 3385.01L130.78 3344.14" stroke="black" stroke-width="32.6946" stroke-linecap="round" stroke-linejoin="round"></path>
</mask>
<g mask="url(#mask2_139_2)">
<path d="M-89.9102 3082.58H302.425V3474.92H-89.9102V3082.58Z" fill="#A79BD9"></path>
</g>
<mask id="mask3_139_2" style="mask-type:luminance" maskUnits="userSpaceOnUse" x="2690" y="0" width="197" height="360">
<path d="M2706.52 204.342C2706.52 204.342 2870 204.342 2870 106.258V343.294H2706.52V204.342Z" fill="white"></path>
<path d="M2870 106.258V98.0842C2870 52.9411 2833.4 16.3477 2788.26 16.3477C2743.12 16.3477 2706.52 52.9411 2706.52 98.0842M2870 106.258C2870 204.342 2706.52 204.342 2706.52 204.342V343.294H2870V106.258Z" stroke="white" stroke-width="32.6946" stroke-linecap="round" stroke-linejoin="round"></path>
<path d="M2755.56 261.558L2780.09 286.079L2820.95 245.211" stroke="black" stroke-width="32.6946" stroke-linecap="round" stroke-linejoin="round"></path>
</mask>
<g mask="url(#mask3_139_2)">
<path d="M2600.26 -16.3467H2992.6V375.989H2600.26V-16.3467Z" fill="#A79BD9"></path>
</g>
<mask id="mask4_139_2" style="mask-type:luminance" maskUnits="userSpaceOnUse" x="2690" y="1549" width="197" height="361">
<path d="M2706.52 1753.81C2706.52 1753.81 2870 1753.81 2870 1655.72V1892.76H2706.52V1753.81Z" fill="white"></path>
<path d="M2870 1655.72V1647.55C2870 1602.41 2833.4 1565.81 2788.26 1565.81C2743.12 1565.81 2706.52 1602.41 2706.52 1647.55M2870 1655.72C2870 1753.81 2706.52 1753.81 2706.52 1753.81V1892.76H2870V1655.72Z" stroke="white" stroke-width="32.6946" stroke-linecap="round" stroke-linejoin="round"></path>
<path d="M2755.56 1811.02L2780.09 1835.54L2820.95 1794.68" stroke="black" stroke-width="32.6946" stroke-linecap="round" stroke-linejoin="round"></path>
</mask>
<g mask="url(#mask4_139_2)">
<path d="M2600.26 1533.12H2992.6V1925.45H2600.26V1533.12Z" fill="#A79BD9"></path>
</g>
<mask id="mask5_139_2" style="mask-type:luminance" maskUnits="userSpaceOnUse" x="2690" y="3098" width="197" height="361">
<path d="M2706.52 3303.27C2706.52 3303.27 2870 3303.27 2870 3205.19V3442.22H2706.52V3303.27Z" fill="white"></path>
<path d="M2870 3205.19V3197.01C2870 3151.87 2833.4 3115.28 2788.26 3115.28C2743.12 3115.28 2706.52 3151.87 2706.52 3197.01M2870 3205.19C2870 3303.27 2706.52 3303.27 2706.52 3303.27V3442.22H2870V3205.19Z" stroke="white" stroke-width="32.6946" stroke-linecap="round" stroke-linejoin="round"></path>
<path d="M2755.56 3360.49L2780.09 3385.01L2820.95 3344.14" stroke="black" stroke-width="32.6946" stroke-linecap="round" stroke-linejoin="round"></path>
</mask>
<g mask="url(#mask5_139_2)">
<path d="M2600.26 3082.58H2992.6V3474.92H2600.26V3082.58Z" fill="#A79BD9"></path>
</g>
<mask id="mask6_139_2" style="mask-type:luminance" maskUnits="userSpaceOnUse" x="1793" y="0" width="197" height="360">
<path d="M1809.8 204.342C1809.8 204.342 1973.27 204.342 1973.27 106.258V343.294H1809.8V204.342Z" fill="white"></path>
<path d="M1973.27 106.258V98.0842C1973.27 52.9411 1936.68 16.3477 1891.54 16.3477C1846.39 16.3477 1809.8 52.9411 1809.8 98.0842M1973.27 106.258C1973.27 204.342 1809.8 204.342 1809.8 204.342V343.294H1973.27V106.258Z" stroke="white" stroke-width="32.6946" stroke-linecap="round" stroke-linejoin="round"></path>
<path d="M1858.84 261.558L1883.36 286.079L1924.23 245.211" stroke="black" stroke-width="32.6946" stroke-linecap="round" stroke-linejoin="round"></path>
</mask>
<g mask="url(#mask6_139_2)">
<path d="M1703.54 -16.3467H2095.88V375.989H1703.54V-16.3467Z" fill="#A0C6E8"></path>
</g>
<mask id="mask7_139_2" style="mask-type:luminance" maskUnits="userSpaceOnUse" x="1793" y="1549" width="197" height="361">
<path d="M1809.8 1753.81C1809.8 1753.81 1973.27 1753.81 1973.27 1655.72V1892.76H1809.8V1753.81Z" fill="white"></path>
<path d="M1973.27 1655.72V1647.55C1973.27 1602.41 1936.68 1565.81 1891.54 1565.81C1846.39 1565.81 1809.8 1602.41 1809.8 1647.55M1973.27 1655.72C1973.27 1753.81 1809.8 1753.81 1809.8 1753.81V1892.76H1973.27V1655.72Z" stroke="white" stroke-width="32.6946" stroke-linecap="round" stroke-linejoin="round"></path>
<path d="M1858.84 1811.02L1883.36 1835.54L1924.23 1794.68" stroke="black" stroke-width="32.6946" stroke-linecap="round" stroke-linejoin="round"></path>
</mask>
<g mask="url(#mask7_139_2)">
<path d="M1703.54 1533.12H2095.88V1925.45H1703.54V1533.12Z" fill="#A0C6E8"></path>
</g>
<mask id="mask8_139_2" style="mask-type:luminance" maskUnits="userSpaceOnUse" x="1793" y="3098" width="197" height="361">
<path d="M1809.8 3303.27C1809.8 3303.27 1973.27 3303.27 1973.27 3205.19V3442.22H1809.8V3303.27Z" fill="white"></path>
<path d="M1973.27 3205.19V3197.01C1973.27 3151.87 1936.68 3115.28 1891.54 3115.28C1846.39 3115.28 1809.8 3151.87 1809.8 3197.01M1973.27 3205.19C1973.27 3303.27 1809.8 3303.27 1809.8 3303.27V3442.22H1973.27V3205.19Z" stroke="white" stroke-width="32.6946" stroke-linecap="round" stroke-linejoin="round"></path>
<path d="M1858.84 3360.49L1883.36 3385.01L1924.23 3344.14" stroke="black" stroke-width="32.6946" stroke-linecap="round" stroke-linejoin="round"></path>
</mask>
<g mask="url(#mask8_139_2)">
<path d="M1703.54 3082.58H2095.88V3474.92H1703.54V3082.58Z" fill="#A0C6E8"></path>
</g>
<mask id="mask9_139_2" style="mask-type:luminance" maskUnits="userSpaceOnUse" x="896" y="0" width="197" height="360">
<path d="M913.072 204.342C913.072 204.342 1076.55 204.342 1076.55 106.258V343.294H913.072V204.342Z" fill="white"></path>
<path d="M1076.55 106.258V98.0842C1076.55 52.9411 1039.95 16.3477 994.809 16.3477C949.666 16.3477 913.072 52.9411 913.072 98.0842M1076.55 106.258C1076.55 204.342 913.072 204.342 913.072 204.342V343.294H1076.55V106.258Z" stroke="white" stroke-width="32.6946" stroke-linecap="round" stroke-linejoin="round"></path>
<path d="M962.115 261.558L986.636 286.079L1027.5 245.211" stroke="black" stroke-width="32.6946" stroke-linecap="round" stroke-linejoin="round"></path>
</mask>
<g mask="url(#mask9_139_2)">
<path d="M806.812 -16.3467H1199.15V375.989H806.812V-16.3467Z" fill="#5053A9"></path>
</g>
<mask id="mask10_139_2" style="mask-type:luminance" maskUnits="userSpaceOnUse" x="896" y="1549" width="197" height="361">
<path d="M913.072 1753.81C913.072 1753.81 1076.55 1753.81 1076.55 1655.72V1892.76H913.072V1753.81Z" fill="white"></path>
<path d="M1076.55 1655.72V1647.55C1076.55 1602.41 1039.95 1565.81 994.809 1565.81C949.666 1565.81 913.072 1602.41 913.072 1647.55M1076.55 1655.72C1076.55 1753.81 913.072 1753.81 913.072 1753.81V1892.76H1076.55V1655.72Z" stroke="white" stroke-width="32.6946" stroke-linecap="round" stroke-linejoin="round"></path>
<path d="M962.115 1811.02L986.636 1835.54L1027.5 1794.68" stroke="black" stroke-width="32.6946" stroke-linecap="round" stroke-linejoin="round"></path>
</mask>
<g mask="url(#mask10_139_2)">
<path d="M806.812 1533.12H1199.15V1925.45H806.812V1533.12Z" fill="#5053A9"></path>
</g>
<mask id="mask11_139_2" style="mask-type:luminance" maskUnits="userSpaceOnUse" x="896" y="3098" width="197" height="361">
<path d="M913.072 3303.27C913.072 3303.27 1076.55 3303.27 1076.55 3205.19V3442.22H913.072V3303.27Z" fill="white"></path>
<path d="M1076.55 3205.19V3197.01C1076.55 3151.87 1039.95 3115.28 994.809 3115.28C949.666 3115.28 913.072 3151.87 913.072 3197.01M1076.55 3205.19C1076.55 3303.27 913.072 3303.27 913.072 3303.27V3442.22H1076.55V3205.19Z" stroke="white" stroke-width="32.6946" stroke-linecap="round" stroke-linejoin="round"></path>
<path d="M962.115 3360.49L986.636 3385.01L1027.5 3344.14" stroke="black" stroke-width="32.6946" stroke-linecap="round" stroke-linejoin="round"></path>
</mask>
<g mask="url(#mask11_139_2)">
<path d="M806.812 3082.58H1199.15V3474.92H806.812V3082.58Z" fill="#5053A9"></path>
</g>
<path d="M948.887 1126.33V1109.98L918.236 1140.64C917.964 1140.91 915.784 1141.59 911.697 1142.68C908.973 1142.68 906.864 1141.52 905.371 1139.2C903.878 1136.88 903.807 1134.49 905.158 1132.05L916.193 1109.98V1093.64C911.561 1093.64 907.681 1092.07 904.553 1088.93C901.426 1085.79 899.856 1081.91 899.845 1077.29C899.834 1072.67 901.404 1068.79 904.553 1065.65C907.703 1062.51 911.583 1060.94 916.193 1060.94H997.929C1002.56 1060.94 1006.45 1062.51 1009.58 1065.65C1012.72 1068.79 1014.29 1072.67 1014.28 1077.29V1089.96C1014.28 1091.32 1014.14 1092.48 1013.87 1093.44C1013.6 1094.4 1013.19 1095.56 1012.64 1096.91L997.929 1126.33H948.887ZM916.193 1387.89C907.202 1387.89 899.508 1384.69 893.11 1378.29C886.713 1371.9 883.509 1364.2 883.498 1355.19V1274.68C883.498 1271.96 883.771 1269.31 884.315 1266.72C884.86 1264.14 885.814 1261.62 887.176 1259.15L939.488 1160.25C942.485 1154.8 946.506 1150.51 951.552 1147.37C956.598 1144.23 962.249 1142.67 968.504 1142.68H997.929C1002.56 1142.68 1006.45 1144.25 1009.58 1147.39C1012.72 1150.53 1014.29 1154.41 1014.28 1159.03V1355.19C1014.28 1364.19 1011.08 1371.88 1004.68 1378.29C998.283 1384.7 990.584 1387.9 981.582 1387.89H916.193Z" fill="#A79BD9"></path>
<path d="M948.887 2674.74V2658.39L918.236 2689.04C917.964 2689.32 915.784 2690 911.697 2691.09C908.973 2691.09 906.864 2689.93 905.371 2687.61C903.878 2685.28 903.807 2682.9 905.158 2680.46L916.193 2658.39V2642.05C911.561 2642.05 907.681 2640.48 904.553 2637.34C901.426 2634.2 899.856 2630.32 899.845 2625.7C899.834 2621.08 901.404 2617.2 904.553 2614.06C907.703 2610.92 911.583 2609.35 916.193 2609.35H997.929C1002.56 2609.35 1006.45 2610.92 1009.58 2614.06C1012.72 2617.2 1014.29 2621.08 1014.28 2625.7V2638.37C1014.28 2639.73 1014.14 2640.89 1013.87 2641.85C1013.6 2642.81 1013.19 2643.96 1012.64 2645.32L997.929 2674.74H948.887ZM916.193 2936.3C907.202 2936.3 899.508 2933.1 893.11 2926.7C886.713 2920.3 883.509 2912.61 883.498 2903.6V2823.09C883.498 2820.37 883.771 2817.71 884.315 2815.13C884.86 2812.55 885.814 2810.03 887.176 2807.56L939.488 2708.66C942.485 2703.21 946.506 2698.92 951.552 2695.78C956.598 2692.64 962.249 2691.08 968.504 2691.09H997.929C1002.56 2691.09 1006.45 2692.66 1009.58 2695.8C1012.72 2698.93 1014.29 2702.81 1014.28 2707.44V2903.6C1014.28 2912.59 1011.08 2920.29 1004.68 2926.7C998.283 2933.11 990.584 2936.31 981.582 2936.3H916.193Z" fill="#A79BD9"></path>
<path d="M3550.34 1126.33V1109.98L3519.69 1140.64C3519.42 1140.91 3517.24 1141.59 3513.15 1142.68C3510.43 1142.68 3508.32 1141.52 3506.83 1139.2C3505.33 1136.88 3505.26 1134.49 3506.61 1132.05L3517.65 1109.98V1093.64C3513.02 1093.64 3509.14 1092.07 3506.01 1088.93C3502.88 1085.79 3501.31 1081.91 3501.3 1077.29C3501.29 1072.67 3502.86 1068.79 3506.01 1065.65C3509.16 1062.51 3513.04 1060.94 3517.65 1060.94H3599.38C3604.02 1060.94 3607.9 1062.51 3611.04 1065.65C3614.18 1068.79 3615.74 1072.67 3615.73 1077.29V1089.96C3615.73 1091.32 3615.6 1092.48 3615.32 1093.44C3615.05 1094.4 3614.64 1095.56 3614.1 1096.91L3599.38 1126.33H3550.34ZM3517.65 1387.89C3508.66 1387.89 3500.96 1384.69 3494.57 1378.29C3488.17 1371.9 3484.96 1364.2 3484.95 1355.19V1274.68C3484.95 1271.96 3485.23 1269.31 3485.77 1266.72C3486.32 1264.14 3487.27 1261.62 3488.63 1259.15L3540.94 1160.25C3543.94 1154.8 3547.96 1150.51 3553.01 1147.37C3558.05 1144.23 3563.7 1142.67 3569.96 1142.68H3599.38C3604.02 1142.68 3607.9 1144.25 3611.04 1147.39C3614.18 1150.53 3615.74 1154.41 3615.73 1159.03V1355.19C3615.73 1364.19 3612.53 1371.88 3606.14 1378.29C3599.74 1384.7 3592.04 1387.9 3583.04 1387.89H3517.65Z" fill="#A79BD9"></path>
<path d="M3550.34 2674.74V2658.39L3519.69 2689.04C3519.42 2689.32 3517.24 2690 3513.15 2691.09C3510.43 2691.09 3508.32 2689.93 3506.83 2687.61C3505.33 2685.28 3505.26 2682.9 3506.61 2680.46L3517.65 2658.39V2642.05C3513.02 2642.05 3509.14 2640.48 3506.01 2637.34C3502.88 2634.2 3501.31 2630.32 3501.3 2625.7C3501.29 2621.08 3502.86 2617.2 3506.01 2614.06C3509.16 2610.92 3513.04 2609.35 3517.65 2609.35H3599.38C3604.02 2609.35 3607.9 2610.92 3611.04 2614.06C3614.18 2617.2 3615.74 2621.08 3615.73 2625.7V2638.37C3615.73 2639.73 3615.6 2640.89 3615.32 2641.85C3615.05 2642.81 3614.64 2643.96 3614.1 2645.32L3599.38 2674.74H3550.34ZM3517.65 2936.3C3508.66 2936.3 3500.96 2933.1 3494.57 2926.7C3488.17 2920.3 3484.96 2912.61 3484.95 2903.6V2823.09C3484.95 2820.37 3485.23 2817.71 3485.77 2815.13C3486.32 2812.55 3487.27 2810.03 3488.63 2807.56L3540.94 2708.66C3543.94 2703.21 3547.96 2698.92 3553.01 2695.78C3558.05 2692.64 3563.7 2691.08 3569.96 2691.09H3599.38C3604.02 2691.09 3607.9 2692.66 3611.04 2695.8C3614.18 2698.93 3615.74 2702.81 3615.73 2707.44V2903.6C3615.73 2912.59 3612.53 2920.29 3606.14 2926.7C3599.74 2933.11 3592.04 2936.31 3583.04 2936.3H3517.65Z" fill="#A79BD9"></path>
<path d="M81.7369 1126.33V1109.98L51.0857 1140.64C50.8132 1140.91 48.6336 1141.59 44.5468 1142.68C41.8222 1142.68 39.7134 1141.52 38.2204 1139.2C36.7273 1136.88 36.6565 1134.49 38.0078 1132.05L49.0423 1109.98V1093.64C44.4105 1093.64 40.5308 1092.07 37.403 1088.93C34.2752 1085.79 32.7059 1081.91 32.695 1077.29C32.6841 1072.67 34.2534 1068.79 37.403 1065.65C40.5526 1062.51 44.4323 1060.94 49.0423 1060.94H130.779C135.411 1060.94 139.296 1062.51 142.435 1065.65C145.573 1068.79 147.137 1072.67 147.126 1077.29V1089.96C147.126 1091.32 146.99 1092.48 146.718 1093.44C146.445 1094.4 146.036 1095.56 145.491 1096.91L130.779 1126.33H81.7369ZM49.0423 1387.89C40.0513 1387.89 32.3571 1384.69 25.9599 1378.29C19.5626 1371.9 16.3586 1364.2 16.3477 1355.19V1274.68C16.3477 1271.96 16.6201 1269.31 17.165 1266.72C17.7099 1264.14 18.6635 1261.62 20.0258 1259.15L72.3372 1160.25C75.3342 1154.8 79.3557 1150.51 84.4015 1147.37C89.4474 1144.23 95.0981 1142.67 101.354 1142.68H130.779C135.411 1142.68 139.296 1144.25 142.435 1147.39C145.573 1150.53 147.137 1154.41 147.126 1159.03V1355.19C147.126 1364.19 143.928 1371.88 137.53 1378.29C131.133 1384.7 123.433 1387.9 114.432 1387.89H49.0423Z" fill="#A0C6E8"></path>
<path d="M81.7369 2674.74V2658.39L51.0857 2689.04C50.8132 2689.32 48.6336 2690 44.5468 2691.09C41.8222 2691.09 39.7134 2689.93 38.2204 2687.61C36.7273 2685.28 36.6565 2682.9 38.0078 2680.46L49.0423 2658.39V2642.05C44.4105 2642.05 40.5308 2640.48 37.403 2637.34C34.2752 2634.2 32.7059 2630.32 32.695 2625.7C32.6841 2621.08 34.2534 2617.2 37.403 2614.06C40.5526 2610.92 44.4323 2609.35 49.0423 2609.35H130.779C135.411 2609.35 139.296 2610.92 142.435 2614.06C145.573 2617.2 147.137 2621.08 147.126 2625.7V2638.37C147.126 2639.73 146.99 2640.89 146.718 2641.85C146.445 2642.81 146.036 2643.96 145.491 2645.32L130.779 2674.74H81.7369ZM49.0423 2936.3C40.0513 2936.3 32.3571 2933.1 25.9599 2926.7C19.5626 2920.3 16.3586 2912.61 16.3477 2903.6V2823.09C16.3477 2820.37 16.6201 2817.71 17.165 2815.13C17.7099 2812.55 18.6635 2810.03 20.0258 2807.56L72.3372 2708.66C75.3342 2703.21 79.3557 2698.92 84.4015 2695.78C89.4474 2692.64 95.0981 2691.08 101.354 2691.09H130.779C135.411 2691.09 139.296 2692.66 142.435 2695.8C145.573 2698.93 147.137 2702.81 147.126 2707.44V2903.6C147.126 2912.59 143.928 2920.29 137.53 2926.7C131.133 2933.11 123.433 2936.31 114.432 2936.3H49.0423Z" fill="#A0C6E8"></path>
<path d="M2683.19 1126.33V1109.98L2652.54 1140.64C2652.27 1140.91 2650.09 1141.59 2646 1142.68C2643.28 1142.68 2641.17 1141.52 2639.67 1139.2C2638.18 1136.88 2638.11 1134.49 2639.46 1132.05L2650.5 1109.98V1093.64C2645.86 1093.64 2641.98 1092.07 2638.86 1088.93C2635.73 1085.79 2634.16 1081.91 2634.15 1077.29C2634.14 1072.67 2635.71 1068.79 2638.86 1065.65C2642.01 1062.51 2645.89 1060.94 2650.5 1060.94H2732.23C2736.86 1060.94 2740.75 1062.51 2743.89 1065.65C2747.03 1068.79 2748.59 1072.67 2748.58 1077.29V1089.96C2748.58 1091.32 2748.44 1092.48 2748.17 1093.44C2747.9 1094.4 2747.49 1095.56 2746.94 1096.91L2732.23 1126.33H2683.19ZM2650.5 1387.89C2641.5 1387.89 2633.81 1384.69 2627.41 1378.29C2621.02 1371.9 2617.81 1364.2 2617.8 1355.19V1274.68C2617.8 1271.96 2618.07 1269.31 2618.62 1266.72C2619.16 1264.14 2620.12 1261.62 2621.48 1259.15L2673.79 1160.25C2676.79 1154.8 2680.81 1150.51 2685.85 1147.37C2690.9 1144.23 2696.55 1142.67 2702.81 1142.68H2732.23C2736.86 1142.68 2740.75 1144.25 2743.89 1147.39C2747.03 1150.53 2748.59 1154.41 2748.58 1159.03V1355.19C2748.58 1364.19 2745.38 1371.88 2738.98 1378.29C2732.59 1384.7 2724.89 1387.9 2715.88 1387.89H2650.5Z" fill="#A0C6E8"></path>
<path d="M2683.19 2674.74V2658.39L2652.54 2689.04C2652.27 2689.32 2650.09 2690 2646 2691.09C2643.28 2691.09 2641.17 2689.93 2639.67 2687.61C2638.18 2685.28 2638.11 2682.9 2639.46 2680.46L2650.5 2658.39V2642.05C2645.86 2642.05 2641.98 2640.48 2638.86 2637.34C2635.73 2634.2 2634.16 2630.32 2634.15 2625.7C2634.14 2621.08 2635.71 2617.2 2638.86 2614.06C2642.01 2610.92 2645.89 2609.35 2650.5 2609.35H2732.23C2736.86 2609.35 2740.75 2610.92 2743.89 2614.06C2747.03 2617.2 2748.59 2621.08 2748.58 2625.7V2638.37C2748.58 2639.73 2748.44 2640.89 2748.17 2641.85C2747.9 2642.81 2747.49 2643.96 2746.94 2645.32L2732.23 2674.74H2683.19ZM2650.5 2936.3C2641.5 2936.3 2633.81 2933.1 2627.41 2926.7C2621.02 2920.3 2617.81 2912.61 2617.8 2903.6V2823.09C2617.8 2820.37 2618.07 2817.71 2618.62 2815.13C2619.16 2812.55 2620.12 2810.03 2621.48 2807.56L2673.79 2708.66C2676.79 2703.21 2680.81 2698.92 2685.85 2695.78C2690.9 2692.64 2696.55 2691.08 2702.81 2691.09H2732.23C2736.86 2691.09 2740.75 2692.66 2743.89 2695.8C2747.03 2698.93 2748.59 2702.81 2748.58 2707.44V2903.6C2748.58 2912.59 2745.38 2920.29 2738.98 2926.7C2732.59 2933.11 2724.89 2936.31 2715.88 2936.3H2650.5Z" fill="#A0C6E8"></path>
<path d="M1816.04 1126.33V1109.98L1785.39 1140.64C1785.12 1140.91 1782.94 1141.59 1778.85 1142.68C1776.12 1142.68 1774.02 1141.52 1772.52 1139.2C1771.03 1136.88 1770.96 1134.49 1772.31 1132.05L1783.35 1109.98V1093.64C1778.71 1093.64 1774.83 1092.07 1771.71 1088.93C1768.58 1085.79 1767.01 1081.91 1767 1077.29C1766.99 1072.67 1768.56 1068.79 1771.71 1065.65C1774.86 1062.51 1778.74 1060.94 1783.35 1060.94H1865.08C1869.71 1060.94 1873.6 1062.51 1876.74 1065.65C1879.88 1068.79 1881.44 1072.67 1881.43 1077.29V1089.96C1881.43 1091.32 1881.29 1092.48 1881.02 1093.44C1880.75 1094.4 1880.34 1095.56 1879.79 1096.91L1865.08 1126.33H1816.04ZM1783.35 1387.89C1774.35 1387.89 1766.66 1384.69 1760.26 1378.29C1753.87 1371.9 1750.66 1364.2 1750.65 1355.19V1274.68C1750.65 1271.96 1750.92 1269.31 1751.47 1266.72C1752.01 1264.14 1752.97 1261.62 1754.33 1259.15L1806.64 1160.25C1809.64 1154.8 1813.66 1150.51 1818.7 1147.37C1823.75 1144.23 1829.4 1142.67 1835.66 1142.68H1865.08C1869.71 1142.68 1873.6 1144.25 1876.74 1147.39C1879.88 1150.53 1881.44 1154.41 1881.43 1159.03V1355.19C1881.43 1364.19 1878.23 1371.88 1871.83 1378.29C1865.44 1384.7 1857.74 1387.9 1848.73 1387.89H1783.35Z" fill="#5053A9"></path>
<path d="M1816.04 2674.74V2658.39L1785.39 2689.04C1785.12 2689.32 1782.94 2690 1778.85 2691.09C1776.12 2691.09 1774.02 2689.93 1772.52 2687.61C1771.03 2685.28 1770.96 2682.9 1772.31 2680.46L1783.35 2658.39V2642.05C1778.71 2642.05 1774.83 2640.48 1771.71 2637.34C1768.58 2634.2 1767.01 2630.32 1767 2625.7C1766.99 2621.08 1768.56 2617.2 1771.71 2614.06C1774.86 2610.92 1778.74 2609.35 1783.35 2609.35H1865.08C1869.71 2609.35 1873.6 2610.92 1876.74 2614.06C1879.88 2617.2 1881.44 2621.08 1881.43 2625.7V2638.37C1881.43 2639.73 1881.29 2640.89 1881.02 2641.85C1880.75 2642.81 1880.34 2643.96 1879.79 2645.32L1865.08 2674.74H1816.04ZM1783.35 2936.3C1774.35 2936.3 1766.66 2933.1 1760.26 2926.7C1753.87 2920.3 1750.66 2912.61 1750.65 2903.6V2823.09C1750.65 2820.37 1750.92 2817.71 1751.47 2815.13C1752.01 2812.55 1752.97 2810.03 1754.33 2807.56L1806.64 2708.66C1809.64 2703.21 1813.66 2698.92 1818.7 2695.78C1823.75 2692.64 1829.4 2691.08 1835.66 2691.09H1865.08C1869.71 2691.09 1873.6 2692.66 1876.74 2695.8C1879.88 2698.93 1881.44 2702.81 1881.43 2707.44V2903.6C1881.43 2912.59 1878.23 2920.29 1871.83 2926.7C1865.44 2933.11 1857.74 2936.31 1848.73 2936.3H1783.35Z" fill="#5053A9"></path>
<path d="M1930.03 881.914C1921.85 881.914 1914.7 879.255 1908.58 873.937C1902.45 868.619 1898.84 861.878 1897.74 853.715L1871.18 655.095C1870.63 650.191 1871.99 645.903 1875.26 642.23C1878.53 638.557 1882.62 636.716 1887.52 636.705H2078.79C2083.69 636.705 2087.78 638.546 2091.05 642.23C2094.32 645.914 2095.68 650.202 2095.13 655.095L2068.57 853.715C2067.48 861.889 2063.87 868.635 2057.73 873.953C2051.6 879.272 2044.45 881.925 2036.28 881.914H1930.03ZM1930.03 849.22H2036.28L2059.99 669.399H1905.91L1930.03 849.22ZM1983.15 767.483C1996.78 767.483 2008.36 762.715 2017.89 753.179C2027.43 743.643 2032.2 732.064 2032.2 718.441V702.094C2032.2 697.462 2030.63 693.582 2027.49 690.455C2024.35 687.327 2020.47 685.758 2015.85 685.747C2011.23 685.736 2007.35 687.305 2004.21 690.455C2001.07 693.604 1999.5 697.484 1999.5 702.094V718.441C1999.5 723.073 1997.93 726.958 1994.79 730.097C1991.66 733.236 1987.78 734.799 1983.15 734.789C1978.53 734.778 1974.65 733.208 1971.52 730.081C1968.38 726.953 1966.81 723.073 1966.81 718.441V702.094C1966.81 697.462 1965.24 693.582 1962.1 690.455C1958.96 687.327 1955.08 685.758 1950.46 685.747C1945.84 685.736 1941.96 687.305 1938.82 690.455C1935.68 693.604 1934.11 697.484 1934.11 702.094V718.441C1934.11 732.064 1938.88 743.643 1948.42 753.179C1957.95 762.715 1969.53 767.483 1983.15 767.483ZM2032.2 620.357C2025.39 620.357 2019.6 617.976 2014.84 613.214C2010.07 608.451 2007.69 602.659 2007.68 595.836C2007.66 589.014 2010.05 583.227 2014.84 578.476C2019.62 573.724 2025.41 571.337 2032.2 571.315C2038.99 571.294 2044.78 573.68 2049.57 578.476C2054.37 583.271 2056.75 589.058 2056.72 595.836C2056.68 602.615 2054.3 608.407 2049.57 613.214C2044.84 618.02 2039.05 620.401 2032.2 620.357ZM1950.46 604.01C1939.02 604.01 1929.34 600.059 1921.44 592.158C1913.54 584.257 1909.59 574.585 1909.59 563.142C1909.59 551.699 1913.54 542.026 1921.44 534.125C1929.34 526.224 1939.02 522.273 1950.46 522.273C1961.9 522.273 1971.58 526.224 1979.48 534.125C1987.38 542.026 1991.33 551.699 1991.33 563.142C1991.33 574.585 1987.38 584.257 1979.48 592.158C1971.58 600.059 1961.9 604.01 1950.46 604.01Z" fill="#A79BD9"></path>
<path d="M1930.03 2431.38C1921.85 2431.38 1914.7 2428.72 1908.58 2423.4C1902.45 2418.08 1898.84 2411.34 1897.74 2403.18L1871.18 2204.56C1870.63 2199.66 1871.99 2195.37 1875.26 2191.7C1878.53 2188.02 1882.62 2186.18 1887.52 2186.17H2078.79C2083.69 2186.17 2087.78 2188.01 2091.05 2191.7C2094.32 2195.38 2095.68 2199.67 2095.13 2204.56L2068.57 2403.18C2067.48 2411.35 2063.87 2418.1 2057.73 2423.42C2051.6 2428.74 2044.45 2431.39 2036.28 2431.38H1930.03ZM1930.03 2398.69H2036.28L2059.99 2218.87H1905.91L1930.03 2398.69ZM1983.15 2316.95C1996.78 2316.95 2008.36 2312.18 2017.89 2302.65C2027.43 2293.11 2032.2 2281.53 2032.2 2267.91V2251.56C2032.2 2246.93 2030.63 2243.05 2027.49 2239.92C2024.35 2236.79 2020.47 2235.22 2015.85 2235.21C2011.23 2235.2 2007.35 2236.77 2004.21 2239.92C2001.07 2243.07 1999.5 2246.95 1999.5 2251.56V2267.91C1999.5 2272.54 1997.93 2276.42 1994.79 2279.56C1991.66 2282.7 1987.78 2284.27 1983.15 2284.25C1978.53 2284.24 1974.65 2282.67 1971.52 2279.55C1968.38 2276.42 1966.81 2272.54 1966.81 2267.91V2251.56C1966.81 2246.93 1965.24 2243.05 1962.1 2239.92C1958.96 2236.79 1955.08 2235.22 1950.46 2235.21C1945.84 2235.2 1941.96 2236.77 1938.82 2239.92C1935.68 2243.07 1934.11 2246.95 1934.11 2251.56V2267.91C1934.11 2281.53 1938.88 2293.11 1948.42 2302.65C1957.95 2312.18 1969.53 2316.95 1983.15 2316.95ZM2032.2 2169.82C2025.39 2169.82 2019.6 2167.44 2014.84 2162.68C2010.07 2157.92 2007.69 2152.12 2007.68 2145.3C2007.66 2138.48 2010.05 2132.69 2014.84 2127.94C2019.62 2123.19 2025.41 2120.8 2032.2 2120.78C2038.99 2120.76 2044.78 2123.15 2049.57 2127.94C2054.37 2132.74 2056.75 2138.52 2056.72 2145.3C2056.68 2152.08 2054.3 2157.87 2049.57 2162.68C2044.84 2167.49 2039.05 2169.87 2032.2 2169.82ZM1950.46 2153.48C1939.02 2153.48 1929.34 2149.53 1921.44 2141.62C1913.54 2133.72 1909.59 2124.05 1909.59 2112.61C1909.59 2101.16 1913.54 2091.49 1921.44 2083.59C1929.34 2075.69 1939.02 2071.74 1950.46 2071.74C1961.9 2071.74 1971.58 2075.69 1979.48 2083.59C1987.38 2091.49 1991.33 2101.16 1991.33 2112.61C1991.33 2124.05 1987.38 2133.72 1979.48 2141.62C1971.58 2149.53 1961.9 2153.48 1950.46 2153.48Z" fill="#A79BD9"></path>
<path d="M1930.03 3979.79C1921.85 3979.79 1914.7 3977.13 1908.58 3971.81C1902.45 3966.49 1898.84 3959.75 1897.74 3951.59L1871.18 3752.97C1870.63 3748.07 1871.99 3743.78 1875.26 3740.1C1878.53 3736.43 1882.62 3734.59 1887.52 3734.58H2078.79C2083.69 3734.58 2087.78 3736.42 2091.05 3740.1C2094.32 3743.79 2095.68 3748.08 2095.13 3752.97L2068.57 3951.59C2067.48 3959.76 2063.87 3966.51 2057.73 3971.83C2051.6 3977.15 2044.45 3979.8 2036.28 3979.79H1930.03ZM1930.03 3947.09H2036.28L2059.99 3767.27H1905.91L1930.03 3947.09ZM1983.15 3865.36C1996.78 3865.36 2008.36 3860.59 2017.89 3851.05C2027.43 3841.52 2032.2 3829.94 2032.2 3816.32V3799.97C2032.2 3795.34 2030.63 3791.46 2027.49 3788.33C2024.35 3785.2 2020.47 3783.63 2015.85 3783.62C2011.23 3783.61 2007.35 3785.18 2004.21 3788.33C2001.07 3791.48 1999.5 3795.36 1999.5 3799.97V3816.32C1999.5 3820.95 1997.93 3824.83 1994.79 3827.97C1991.66 3831.11 1987.78 3832.67 1983.15 3832.66C1978.53 3832.65 1974.65 3831.08 1971.52 3827.96C1968.38 3824.83 1966.81 3820.95 1966.81 3816.32V3799.97C1966.81 3795.34 1965.24 3791.46 1962.1 3788.33C1958.96 3785.2 1955.08 3783.63 1950.46 3783.62C1945.84 3783.61 1941.96 3785.18 1938.82 3788.33C1935.68 3791.48 1934.11 3795.36 1934.11 3799.97V3816.32C1934.11 3829.94 1938.88 3841.52 1948.42 3851.05C1957.95 3860.59 1969.53 3865.36 1983.15 3865.36ZM2032.2 3718.23C2025.39 3718.23 2019.6 3715.85 2014.84 3711.09C2010.07 3706.33 2007.69 3700.53 2007.68 3693.71C2007.66 3686.89 2010.05 3681.1 2014.84 3676.35C2019.62 3671.6 2025.41 3669.21 2032.2 3669.19C2038.99 3669.17 2044.78 3671.55 2049.57 3676.35C2054.37 3681.15 2056.75 3686.93 2056.72 3693.71C2056.68 3700.49 2054.3 3706.28 2049.57 3711.09C2044.84 3715.89 2039.05 3718.28 2032.2 3718.23ZM1950.46 3701.88C1939.02 3701.88 1929.34 3697.93 1921.44 3690.03C1913.54 3682.13 1909.59 3672.46 1909.59 3661.02C1909.59 3649.57 1913.54 3639.9 1921.44 3632C1929.34 3624.1 1939.02 3620.15 1950.46 3620.15C1961.9 3620.15 1971.58 3624.1 1979.48 3632C1987.38 3639.9 1991.33 3649.57 1991.33 3661.02C1991.33 3672.46 1987.38 3682.13 1979.48 3690.03C1971.58 3697.93 1961.9 3701.88 1950.46 3701.88Z" fill="#A79BD9"></path>
<path d="M1002.67 881.914C994.497 881.914 987.347 879.255 981.223 873.937C975.098 868.619 971.485 861.878 970.384 853.715L943.82 655.095C943.275 650.191 944.637 645.903 947.907 642.23C951.176 638.557 955.263 636.716 960.167 636.705H1151.43C1156.34 636.705 1160.42 638.546 1163.69 642.23C1166.96 645.914 1168.32 650.202 1167.78 655.095L1141.21 853.715C1140.12 861.889 1136.51 868.635 1130.38 873.953C1124.24 879.272 1117.09 881.925 1108.93 881.914H1002.67ZM1002.67 849.22H1108.93L1132.63 669.399H978.558L1002.67 849.22ZM1055.8 767.483C1069.42 767.483 1081 762.715 1090.54 753.179C1100.07 743.643 1104.84 732.064 1104.84 718.441V702.094C1104.84 697.462 1103.27 693.582 1100.13 690.455C1096.99 687.327 1093.11 685.758 1088.49 685.747C1083.87 685.736 1079.99 687.305 1076.85 690.455C1073.72 693.604 1072.15 697.484 1072.15 702.094V718.441C1072.15 723.073 1070.58 726.958 1067.44 730.097C1064.3 733.236 1060.42 734.799 1055.8 734.789C1051.18 734.778 1047.3 733.208 1044.16 730.081C1041.02 726.953 1039.45 723.073 1039.45 718.441V702.094C1039.45 697.462 1037.88 693.582 1034.74 690.455C1031.6 687.327 1027.73 685.758 1023.1 685.747C1018.48 685.736 1014.6 687.305 1011.47 690.455C1008.33 693.604 1006.76 697.484 1006.76 702.094V718.441C1006.76 732.064 1011.53 743.643 1021.06 753.179C1030.6 762.715 1042.18 767.483 1055.8 767.483ZM1104.84 620.357C1098.03 620.357 1092.24 617.976 1087.48 613.214C1082.72 608.451 1080.33 602.659 1080.32 595.836C1080.31 589.014 1082.7 583.227 1087.48 578.476C1092.26 573.724 1098.05 571.337 1104.84 571.315C1111.63 571.294 1117.42 573.68 1122.22 578.476C1127.01 583.271 1129.39 589.058 1129.36 595.836C1129.33 602.615 1126.95 608.407 1122.22 613.214C1117.49 618.02 1111.7 620.401 1104.84 620.357ZM1023.1 604.01C1011.66 604.01 1001.99 600.059 994.088 592.158C986.187 584.257 982.236 574.585 982.236 563.142C982.236 551.699 986.187 542.026 994.088 534.125C1001.99 526.224 1011.66 522.273 1023.1 522.273C1034.55 522.273 1044.22 526.224 1052.12 534.125C1060.02 542.026 1063.97 551.699 1063.97 563.142C1063.97 574.585 1060.02 584.257 1052.12 592.158C1044.22 600.059 1034.55 604.01 1023.1 604.01Z" fill="#A0C6E8"></path>
<path d="M1002.67 2431.38C994.497 2431.38 987.347 2428.72 981.223 2423.4C975.098 2418.08 971.485 2411.34 970.384 2403.18L943.82 2204.56C943.275 2199.66 944.637 2195.37 947.907 2191.7C951.176 2188.02 955.263 2186.18 960.167 2186.17H1151.43C1156.34 2186.17 1160.42 2188.01 1163.69 2191.7C1166.96 2195.38 1168.32 2199.67 1167.78 2204.56L1141.21 2403.18C1140.12 2411.35 1136.51 2418.1 1130.38 2423.42C1124.24 2428.74 1117.09 2431.39 1108.93 2431.38H1002.67ZM1002.67 2398.69H1108.93L1132.63 2218.87H978.558L1002.67 2398.69ZM1055.8 2316.95C1069.42 2316.95 1081 2312.18 1090.54 2302.65C1100.07 2293.11 1104.84 2281.53 1104.84 2267.91V2251.56C1104.84 2246.93 1103.27 2243.05 1100.13 2239.92C1096.99 2236.79 1093.11 2235.22 1088.49 2235.21C1083.87 2235.2 1079.99 2236.77 1076.85 2239.92C1073.72 2243.07 1072.15 2246.95 1072.15 2251.56V2267.91C1072.15 2272.54 1070.58 2276.42 1067.44 2279.56C1064.3 2282.7 1060.42 2284.27 1055.8 2284.25C1051.18 2284.24 1047.3 2282.67 1044.16 2279.55C1041.02 2276.42 1039.45 2272.54 1039.45 2267.91V2251.56C1039.45 2246.93 1037.88 2243.05 1034.74 2239.92C1031.6 2236.79 1027.73 2235.22 1023.1 2235.21C1018.48 2235.2 1014.6 2236.77 1011.47 2239.92C1008.33 2243.07 1006.76 2246.95 1006.76 2251.56V2267.91C1006.76 2281.53 1011.53 2293.11 1021.06 2302.65C1030.6 2312.18 1042.18 2316.95 1055.8 2316.95ZM1104.84 2169.82C1098.03 2169.82 1092.24 2167.44 1087.48 2162.68C1082.72 2157.92 1080.33 2152.12 1080.32 2145.3C1080.31 2138.48 1082.7 2132.69 1087.48 2127.94C1092.26 2123.19 1098.05 2120.8 1104.84 2120.78C1111.63 2120.76 1117.42 2123.15 1122.22 2127.94C1127.01 2132.74 1129.39 2138.52 1129.36 2145.3C1129.33 2152.08 1126.95 2157.87 1122.22 2162.68C1117.49 2167.49 1111.7 2169.87 1104.84 2169.82ZM1023.1 2153.48C1011.66 2153.48 1001.99 2149.53 994.088 2141.62C986.187 2133.72 982.236 2124.05 982.236 2112.61C982.236 2101.16 986.187 2091.49 994.088 2083.59C1001.99 2075.69 1011.66 2071.74 1023.1 2071.74C1034.55 2071.74 1044.22 2075.69 1052.12 2083.59C1060.02 2091.49 1063.97 2101.16 1063.97 2112.61C1063.97 2124.05 1060.02 2133.72 1052.12 2141.62C1044.22 2149.53 1034.55 2153.48 1023.1 2153.48Z" fill="#A0C6E8"></path>
<path d="M1002.67 3979.79C994.497 3979.79 987.347 3977.13 981.223 3971.81C975.098 3966.49 971.485 3959.75 970.384 3951.59L943.82 3752.97C943.275 3748.07 944.637 3743.78 947.907 3740.1C951.176 3736.43 955.263 3734.59 960.167 3734.58H1151.43C1156.34 3734.58 1160.42 3736.42 1163.69 3740.1C1166.96 3743.79 1168.32 3748.08 1167.78 3752.97L1141.21 3951.59C1140.12 3959.76 1136.51 3966.51 1130.38 3971.83C1124.24 3977.15 1117.09 3979.8 1108.93 3979.79H1002.67ZM1002.67 3947.09H1108.93L1132.63 3767.27H978.558L1002.67 3947.09ZM1055.8 3865.36C1069.42 3865.36 1081 3860.59 1090.54 3851.05C1100.07 3841.52 1104.84 3829.94 1104.84 3816.32V3799.97C1104.84 3795.34 1103.27 3791.46 1100.13 3788.33C1096.99 3785.2 1093.11 3783.63 1088.49 3783.62C1083.87 3783.61 1079.99 3785.18 1076.85 3788.33C1073.72 3791.48 1072.15 3795.36 1072.15 3799.97V3816.32C1072.15 3820.95 1070.58 3824.83 1067.44 3827.97C1064.3 3831.11 1060.42 3832.67 1055.8 3832.66C1051.18 3832.65 1047.3 3831.08 1044.16 3827.96C1041.02 3824.83 1039.45 3820.95 1039.45 3816.32V3799.97C1039.45 3795.34 1037.88 3791.46 1034.74 3788.33C1031.6 3785.2 1027.73 3783.63 1023.1 3783.62C1018.48 3783.61 1014.6 3785.18 1011.47 3788.33C1008.33 3791.48 1006.76 3795.36 1006.76 3799.97V3816.32C1006.76 3829.94 1011.53 3841.52 1021.06 3851.05C1030.6 3860.59 1042.18 3865.36 1055.8 3865.36ZM1104.84 3718.23C1098.03 3718.23 1092.24 3715.85 1087.48 3711.09C1082.72 3706.33 1080.33 3700.53 1080.32 3693.71C1080.31 3686.89 1082.7 3681.1 1087.48 3676.35C1092.26 3671.6 1098.05 3669.21 1104.84 3669.19C1111.63 3669.17 1117.42 3671.55 1122.22 3676.35C1127.01 3681.15 1129.39 3686.93 1129.36 3693.71C1129.33 3700.49 1126.95 3706.28 1122.22 3711.09C1117.49 3715.89 1111.7 3718.28 1104.84 3718.23ZM1023.1 3701.88C1011.66 3701.88 1001.99 3697.93 994.088 3690.03C986.187 3682.13 982.236 3672.46 982.236 3661.02C982.236 3649.57 986.187 3639.9 994.088 3632C1001.99 3624.1 1011.66 3620.15 1023.1 3620.15C1034.55 3620.15 1044.22 3624.1 1052.12 3632C1060.02 3639.9 1063.97 3649.57 1063.97 3661.02C1063.97 3672.46 1060.02 3682.13 1052.12 3690.03C1044.22 3697.93 1034.55 3701.88 1023.1 3701.88Z" fill="#A0C6E8"></path>
<path d="M75.3148 881.914C67.1411 881.914 59.9919 879.255 53.8671 873.937C47.7423 868.619 44.1295 861.878 43.0288 853.715L16.4644 655.095C15.9195 650.191 17.2818 645.903 20.5513 642.23C23.8207 638.557 27.9075 636.716 32.8117 636.705H224.075C228.98 636.705 233.066 638.546 236.336 642.23C239.605 645.914 240.968 650.202 240.423 655.095L213.858 853.715C212.768 861.889 209.156 868.635 203.02 873.953C196.884 879.272 189.735 881.925 181.572 881.914H75.3148ZM75.3148 849.22H181.572L205.276 669.399H51.2025L75.3148 849.22ZM128.444 767.483C142.066 767.483 153.646 762.715 163.182 753.179C172.718 743.643 177.485 732.064 177.485 718.441V702.094C177.485 697.462 175.916 693.582 172.777 690.455C169.639 687.327 165.759 685.758 161.138 685.747C156.517 685.736 152.638 687.305 149.499 690.455C146.36 693.604 144.791 697.484 144.791 702.094V718.441C144.791 723.073 143.222 726.958 140.083 730.097C136.944 733.236 133.064 734.799 128.444 734.789C123.823 734.778 119.943 733.208 116.804 730.081C113.666 726.953 112.096 723.073 112.096 718.441V702.094C112.096 697.462 110.527 693.582 107.388 690.455C104.25 687.327 100.37 685.758 95.7489 685.747C91.1281 685.736 87.2483 687.305 84.1096 690.455C80.9709 693.604 79.4016 697.484 79.4016 702.094V718.441C79.4016 732.064 84.1696 743.643 93.7055 753.179C103.241 762.715 114.821 767.483 128.444 767.483ZM177.485 620.357C170.674 620.357 164.887 617.976 160.125 613.214C155.362 608.451 152.975 602.659 152.965 595.836C152.954 589.014 155.34 583.227 160.125 578.476C164.909 573.724 170.696 571.337 177.485 571.315C184.275 571.294 190.067 573.68 194.863 578.476C199.658 583.271 202.039 589.058 202.006 595.836C201.974 602.615 199.592 608.407 194.863 613.214C190.133 618.02 184.34 620.401 177.485 620.357ZM95.7489 604.01C84.3058 604.01 74.6336 600.059 66.7324 592.158C58.8312 584.257 54.8806 574.585 54.8806 563.142C54.8806 551.699 58.8312 542.026 66.7324 534.125C74.6336 526.224 84.3058 522.273 95.7489 522.273C107.192 522.273 116.864 526.224 124.765 534.125C132.667 542.026 136.617 551.699 136.617 563.142C136.617 574.585 132.667 584.257 124.765 592.158C116.864 600.059 107.192 604.01 95.7489 604.01Z" fill="#5053A9"></path>
<path d="M75.3148 2431.38C67.1411 2431.38 59.9919 2428.72 53.8671 2423.4C47.7423 2418.08 44.1295 2411.34 43.0288 2403.18L16.4644 2204.56C15.9195 2199.66 17.2818 2195.37 20.5513 2191.7C23.8207 2188.02 27.9075 2186.18 32.8117 2186.17H224.075C228.98 2186.17 233.066 2188.01 236.336 2191.7C239.605 2195.38 240.968 2199.67 240.423 2204.56L213.858 2403.18C212.768 2411.35 209.156 2418.1 203.02 2423.42C196.884 2428.74 189.735 2431.39 181.572 2431.38H75.3148ZM75.3148 2398.69H181.572L205.276 2218.87H51.2025L75.3148 2398.69ZM128.444 2316.95C142.066 2316.95 153.646 2312.18 163.182 2302.65C172.718 2293.11 177.485 2281.53 177.485 2267.91V2251.56C177.485 2246.93 175.916 2243.05 172.777 2239.92C169.639 2236.79 165.759 2235.22 161.138 2235.21C156.517 2235.2 152.638 2236.77 149.499 2239.92C146.36 2243.07 144.791 2246.95 144.791 2251.56V2267.91C144.791 2272.54 143.222 2276.42 140.083 2279.56C136.944 2282.7 133.064 2284.27 128.444 2284.25C123.823 2284.24 119.943 2282.67 116.804 2279.55C113.666 2276.42 112.096 2272.54 112.096 2267.91V2251.56C112.096 2246.93 110.527 2243.05 107.388 2239.92C104.25 2236.79 100.37 2235.22 95.7489 2235.21C91.1281 2235.2 87.2483 2236.77 84.1096 2239.92C80.9709 2243.07 79.4016 2246.95 79.4016 2251.56V2267.91C79.4016 2281.53 84.1696 2293.11 93.7055 2302.65C103.241 2312.18 114.821 2316.95 128.444 2316.95ZM177.485 2169.82C170.674 2169.82 164.887 2167.44 160.125 2162.68C155.362 2157.92 152.975 2152.12 152.965 2145.3C152.954 2138.48 155.34 2132.69 160.125 2127.94C164.909 2123.19 170.696 2120.8 177.485 2120.78C184.275 2120.76 190.067 2123.15 194.863 2127.94C199.658 2132.74 202.039 2138.52 202.006 2145.3C201.974 2152.08 199.592 2157.87 194.863 2162.68C190.133 2167.49 184.34 2169.87 177.485 2169.82ZM95.7489 2153.48C84.3058 2153.48 74.6336 2149.53 66.7324 2141.62C58.8312 2133.72 54.8806 2124.05 54.8806 2112.61C54.8806 2101.16 58.8312 2091.49 66.7324 2083.59C74.6336 2075.69 84.3058 2071.74 95.7489 2071.74C107.192 2071.74 116.864 2075.69 124.765 2083.59C132.667 2091.49 136.617 2101.16 136.617 2112.61C136.617 2124.05 132.667 2133.72 124.765 2141.62C116.864 2149.53 107.192 2153.48 95.7489 2153.48Z" fill="#5053A9"></path>
<path d="M75.3148 3979.79C67.1411 3979.79 59.9919 3977.13 53.8671 3971.81C47.7423 3966.49 44.1295 3959.75 43.0288 3951.59L16.4644 3752.97C15.9195 3748.07 17.2818 3743.78 20.5513 3740.1C23.8207 3736.43 27.9075 3734.59 32.8117 3734.58H224.075C228.98 3734.58 233.066 3736.42 236.336 3740.1C239.605 3743.79 240.968 3748.08 240.423 3752.97L213.858 3951.59C212.768 3959.76 209.156 3966.51 203.02 3971.83C196.884 3977.15 189.735 3979.8 181.572 3979.79H75.3148ZM75.3148 3947.09H181.572L205.276 3767.27H51.2025L75.3148 3947.09ZM128.444 3865.36C142.066 3865.36 153.646 3860.59 163.182 3851.05C172.718 3841.52 177.485 3829.94 177.485 3816.32V3799.97C177.485 3795.34 175.916 3791.46 172.777 3788.33C169.639 3785.2 165.759 3783.63 161.138 3783.62C156.517 3783.61 152.638 3785.18 149.499 3788.33C146.36 3791.48 144.791 3795.36 144.791 3799.97V3816.32C144.791 3820.95 143.222 3824.83 140.083 3827.97C136.944 3831.11 133.064 3832.67 128.444 3832.66C123.823 3832.65 119.943 3831.08 116.804 3827.96C113.666 3824.83 112.096 3820.95 112.096 3816.32V3799.97C112.096 3795.34 110.527 3791.46 107.388 3788.33C104.25 3785.2 100.37 3783.63 95.7489 3783.62C91.1281 3783.61 87.2483 3785.18 84.1096 3788.33C80.9709 3791.48 79.4016 3795.36 79.4016 3799.97V3816.32C79.4016 3829.94 84.1696 3841.52 93.7055 3851.05C103.241 3860.59 114.821 3865.36 128.444 3865.36ZM177.485 3718.23C170.674 3718.23 164.887 3715.85 160.125 3711.09C155.362 3706.33 152.975 3700.53 152.965 3693.71C152.954 3686.89 155.34 3681.1 160.125 3676.35C164.909 3671.6 170.696 3669.21 177.485 3669.19C184.275 3669.17 190.067 3671.55 194.863 3676.35C199.658 3681.15 202.039 3686.93 202.006 3693.71C201.974 3700.49 199.592 3706.28 194.863 3711.09C190.133 3715.89 184.34 3718.28 177.485 3718.23ZM95.7489 3701.88C84.3058 3701.88 74.6336 3697.93 66.7324 3690.03C58.8312 3682.13 54.8806 3672.46 54.8806 3661.02C54.8806 3649.57 58.8312 3639.9 66.7324 3632C74.6336 3624.1 84.3058 3620.15 95.7489 3620.15C107.192 3620.15 116.864 3624.1 124.765 3632C132.667 3639.9 136.617 3649.57 136.617 3661.02C136.617 3672.46 132.667 3682.13 124.765 3690.03C116.864 3697.93 107.192 3701.88 95.7489 3701.88Z" fill="#5053A9"></path>
<path d="M2857.38 881.914C2849.21 881.914 2842.06 879.255 2835.93 873.937C2829.81 868.619 2826.2 861.878 2825.1 853.715L2798.53 655.095C2797.99 650.191 2799.35 645.903 2802.62 642.23C2805.89 638.557 2809.97 636.716 2814.88 636.705H3006.14C3011.05 636.705 3015.13 638.546 3018.4 642.23C3021.67 645.914 3023.03 650.202 3022.49 655.095L2995.92 853.715C2994.83 861.889 2991.22 868.635 2985.09 873.953C2978.95 879.272 2971.8 881.925 2963.64 881.914H2857.38ZM2857.38 849.22H2963.64L2987.34 669.399H2833.27L2857.38 849.22ZM2910.51 767.483C2924.13 767.483 2935.71 762.715 2945.25 753.179C2954.78 743.643 2959.55 732.064 2959.55 718.441V702.094C2959.55 697.462 2957.98 693.582 2954.84 690.455C2951.71 687.327 2947.83 685.758 2943.2 685.747C2938.58 685.736 2934.7 687.305 2931.57 690.455C2928.43 693.604 2926.86 697.484 2926.86 702.094V718.441C2926.86 723.073 2925.29 726.958 2922.15 730.097C2919.01 733.236 2915.13 734.799 2910.51 734.789C2905.89 734.778 2902.01 733.208 2898.87 730.081C2895.73 726.953 2894.16 723.073 2894.16 718.441V702.094C2894.16 697.462 2892.59 693.582 2889.45 690.455C2886.32 687.327 2882.44 685.758 2877.82 685.747C2873.19 685.736 2869.31 687.305 2866.18 690.455C2863.04 693.604 2861.47 697.484 2861.47 702.094V718.441C2861.47 732.064 2866.24 743.643 2875.77 753.179C2885.31 762.715 2896.89 767.483 2910.51 767.483ZM2959.55 620.357C2952.74 620.357 2946.95 617.976 2942.19 613.214C2937.43 608.451 2935.04 602.659 2935.03 595.836C2935.02 589.014 2937.41 583.227 2942.19 578.476C2946.98 573.724 2952.76 571.337 2959.55 571.315C2966.34 571.294 2972.13 573.68 2976.93 578.476C2981.72 583.271 2984.11 589.058 2984.07 595.836C2984.04 602.615 2981.66 608.407 2976.93 613.214C2972.2 618.02 2966.41 620.401 2959.55 620.357ZM2877.82 604.01C2866.37 604.01 2856.7 600.059 2848.8 592.158C2840.9 584.257 2836.95 574.585 2836.95 563.142C2836.95 551.699 2840.9 542.026 2848.8 534.125C2856.7 526.224 2866.37 522.273 2877.82 522.273C2889.26 522.273 2898.93 526.224 2906.83 534.125C2914.73 542.026 2918.68 551.699 2918.68 563.142C2918.68 574.585 2914.73 584.257 2906.83 592.158C2898.93 600.059 2889.26 604.01 2877.82 604.01Z" fill="#5053A9"></path>
<path d="M2857.38 2431.38C2849.21 2431.38 2842.06 2428.72 2835.93 2423.4C2829.81 2418.08 2826.2 2411.34 2825.1 2403.18L2798.53 2204.56C2797.99 2199.66 2799.35 2195.37 2802.62 2191.7C2805.89 2188.02 2809.97 2186.18 2814.88 2186.17H3006.14C3011.05 2186.17 3015.13 2188.01 3018.4 2191.7C3021.67 2195.38 3023.03 2199.67 3022.49 2204.56L2995.92 2403.18C2994.83 2411.35 2991.22 2418.1 2985.09 2423.42C2978.95 2428.74 2971.8 2431.39 2963.64 2431.38H2857.38ZM2857.38 2398.69H2963.64L2987.34 2218.87H2833.27L2857.38 2398.69ZM2910.51 2316.95C2924.13 2316.95 2935.71 2312.18 2945.25 2302.65C2954.78 2293.11 2959.55 2281.53 2959.55 2267.91V2251.56C2959.55 2246.93 2957.98 2243.05 2954.84 2239.92C2951.71 2236.79 2947.83 2235.22 2943.2 2235.21C2938.58 2235.2 2934.7 2236.77 2931.57 2239.92C2928.43 2243.07 2926.86 2246.95 2926.86 2251.56V2267.91C2926.86 2272.54 2925.29 2276.42 2922.15 2279.56C2919.01 2282.7 2915.13 2284.27 2910.51 2284.25C2905.89 2284.24 2902.01 2282.67 2898.87 2279.55C2895.73 2276.42 2894.16 2272.54 2894.16 2267.91V2251.56C2894.16 2246.93 2892.59 2243.05 2889.45 2239.92C2886.32 2236.79 2882.44 2235.22 2877.82 2235.21C2873.19 2235.2 2869.31 2236.77 2866.18 2239.92C2863.04 2243.07 2861.47 2246.95 2861.47 2251.56V2267.91C2861.47 2281.53 2866.24 2293.11 2875.77 2302.65C2885.31 2312.18 2896.89 2316.95 2910.51 2316.95ZM2959.55 2169.82C2952.74 2169.82 2946.95 2167.44 2942.19 2162.68C2937.43 2157.92 2935.04 2152.12 2935.03 2145.3C2935.02 2138.48 2937.41 2132.69 2942.19 2127.94C2946.98 2123.19 2952.76 2120.8 2959.55 2120.78C2966.34 2120.76 2972.13 2123.15 2976.93 2127.94C2981.72 2132.74 2984.11 2138.52 2984.07 2145.3C2984.04 2152.08 2981.66 2157.87 2976.93 2162.68C2972.2 2167.49 2966.41 2169.87 2959.55 2169.82ZM2877.82 2153.48C2866.37 2153.48 2856.7 2149.53 2848.8 2141.62C2840.9 2133.72 2836.95 2124.05 2836.95 2112.61C2836.95 2101.16 2840.9 2091.49 2848.8 2083.59C2856.7 2075.69 2866.37 2071.74 2877.82 2071.74C2889.26 2071.74 2898.93 2075.69 2906.83 2083.59C2914.73 2091.49 2918.68 2101.16 2918.68 2112.61C2918.68 2124.05 2914.73 2133.72 2906.83 2141.62C2898.93 2149.53 2889.26 2153.48 2877.82 2153.48Z" fill="#5053A9"></path>
<path d="M2857.38 3979.79C2849.21 3979.79 2842.06 3977.13 2835.93 3971.81C2829.81 3966.49 2826.2 3959.75 2825.1 3951.59L2798.53 3752.97C2797.99 3748.07 2799.35 3743.78 2802.62 3740.1C2805.89 3736.43 2809.97 3734.59 2814.88 3734.58H3006.14C3011.05 3734.58 3015.13 3736.42 3018.4 3740.1C3021.67 3743.79 3023.03 3748.08 3022.49 3752.97L2995.92 3951.59C2994.83 3959.76 2991.22 3966.51 2985.09 3971.83C2978.95 3977.15 2971.8 3979.8 2963.64 3979.79H2857.38ZM2857.38 3947.09H2963.64L2987.34 3767.27H2833.27L2857.38 3947.09ZM2910.51 3865.36C2924.13 3865.36 2935.71 3860.59 2945.25 3851.05C2954.78 3841.52 2959.55 3829.94 2959.55 3816.32V3799.97C2959.55 3795.34 2957.98 3791.46 2954.84 3788.33C2951.71 3785.2 2947.83 3783.63 2943.2 3783.62C2938.58 3783.61 2934.7 3785.18 2931.57 3788.33C2928.43 3791.48 2926.86 3795.36 2926.86 3799.97V3816.32C2926.86 3820.95 2925.29 3824.83 2922.15 3827.97C2919.01 3831.11 2915.13 3832.67 2910.51 3832.66C2905.89 3832.65 2902.01 3831.08 2898.87 3827.96C2895.73 3824.83 2894.16 3820.95 2894.16 3816.32V3799.97C2894.16 3795.34 2892.59 3791.46 2889.45 3788.33C2886.32 3785.2 2882.44 3783.63 2877.82 3783.62C2873.19 3783.61 2869.31 3785.18 2866.18 3788.33C2863.04 3791.48 2861.47 3795.36 2861.47 3799.97V3816.32C2861.47 3829.94 2866.24 3841.52 2875.77 3851.05C2885.31 3860.59 2896.89 3865.36 2910.51 3865.36ZM2959.55 3718.23C2952.74 3718.23 2946.95 3715.85 2942.19 3711.09C2937.43 3706.33 2935.04 3700.53 2935.03 3693.71C2935.02 3686.89 2937.41 3681.1 2942.19 3676.35C2946.98 3671.6 2952.76 3669.21 2959.55 3669.19C2966.34 3669.17 2972.13 3671.55 2976.93 3676.35C2981.72 3681.15 2984.11 3686.93 2984.07 3693.71C2984.04 3700.49 2981.66 3706.28 2976.93 3711.09C2972.2 3715.89 2966.41 3718.28 2959.55 3718.23ZM2877.82 3701.88C2866.37 3701.88 2856.7 3697.93 2848.8 3690.03C2840.9 3682.13 2836.95 3672.46 2836.95 3661.02C2836.95 3649.57 2840.9 3639.9 2848.8 3632C2856.7 3624.1 2866.37 3620.15 2877.82 3620.15C2889.26 3620.15 2898.93 3624.1 2906.83 3632C2914.73 3639.9 2918.68 3649.57 2918.68 3661.02C2918.68 3672.46 2914.73 3682.13 2906.83 3690.03C2898.93 3697.93 2889.26 3701.88 2877.82 3701.88Z" fill="#5053A9"></path>
</svg>